<?xml version="1.0" encoding="UTF-8"?>
<!DOCTYPE svg PUBLIC "-//W3C//DTD SVG 1.1//EN" "http://www.w3.org/Graphics/SVG/1.1/DTD/svg11.dtd">
<!-- Creator: CorelDRAW X7 -->
<svg xmlns="http://www.w3.org/2000/svg" xml:space="preserve" width="182.186mm" height="182.186mm" version="1.1" style="shape-rendering:geometricPrecision; text-rendering:geometricPrecision; image-rendering:optimizeQuality; fill-rule:evenodd; clip-rule:evenodd"
viewBox="0 0 14539 14539"
 xmlns:xlink="http://www.w3.org/1999/xlink">
 <defs>
  <style type="text/css">
   <![CDATA[
    .fil2 {fill:#FEFEFE}
    .fil1 {fill:#FEFEFE;fill-rule:nonzero}
    .fil0 {fill:#17A0DB;fill-rule:nonzero}
   ]]>
  </style>
 </defs>
 <g id="Layer_x0020_1">
  <metadata id="CorelCorpID_0Corel-Layer"/>
  <rect class="fil0" width="14539" height="14539"/>
  <g id="_2283018637280">
   <path class="fil1" d="M6278 2995c-4,-89 63,-159 151,-165 93,-9 173,56 180,150 0,5 4,10 0,15 0,88 -65,159 -153,168 -89,7 -171,-60 -178,-153l0 -15zm184 262c138,-13 239,-128 239,-262l0 -21c-12,-144 -139,-249 -283,-235 -135,10 -239,121 -236,256l0 24c12,145 140,250 280,238z"/>
   <polygon class="fil1" points="9967,7392 9585,7182 9536,7270 9994,7526 10171,7209 10092,7167 "/>
   <path class="fil1" d="M9664 7661l-20 25 -76 98 -57 -98 -61 -98 214 73zm-349 -101l77 126 206 341c27,-27 50,-53 72,-77l-52 -81 142 -177 91 32c7,-15 18,-27 27,-38 11,-16 21,-31 33,-46l-520 -171 -76 91z"/>
   <path class="fil1" d="M5801 8193c71,39 141,79 218,116l47 -77c-108,-56 -208,-119 -299,-182l-296 435c112,74 215,137 330,203l48 -77 -239 -140 81 -114 158 95 46 -74c-51,-27 -103,-60 -159,-94l65 -91z"/>
   <path class="fil1" d="M5828 3074c52,-31 87,36 85,86 -2,16 -7,28 -18,33l-110 58 -53 -91 -14 -25c44,-25 69,-40 110,-61zm-2 483c44,-25 67,-40 105,-65l-97 -161 91 -49 167 121c43,-18 70,-33 106,-49l-191 -139c12,-18 18,-36 19,-55 10,-112 -122,-236 -215,-185 -79,42 -160,84 -237,133l29 52 223 397z"/>
   <path class="fil1" d="M8073 2915l24 -82c47,12 77,20 120,36 28,6 35,25 35,46 0,43 -42,93 -74,84l-117 -37 12 -47zm-35 138l100 30 27 204c41,17 69,28 106,44l-31 -234c80,-18 119,-103 116,-182 -5,-58 -31,-113 -79,-128 -85,-28 -170,-57 -260,-79l-62 207 -85 289c46,13 77,19 119,31l49 -182z"/>
   <path class="fil1" d="M8564 3476l113 -217 306 -142c-33,-23 -67,-39 -99,-61l-211 96 -38 -228c-44,-21 -71,-30 -116,-49l61 332 -114 216 98 53z"/>
   <path class="fil1" d="M6929 2729l46 426 112 -11 -44 -423 169 -11 -6 -95c-189,11 -267,19 -454,47l12 90 165 -23z"/>
   <path class="fil1" d="M7494 2869l53 -112 35 112 28 109c-53,-7 -106,-14 -163,-16l47 -93zm-85 181c71,3 141,6 218,18l30 98c37,2 68,8 107,16l-85 -313 -61 -232 -117 -12 -117 244 -130 269c43,0 63,0 107,1l48 -89z"/>
   <path class="fil1" d="M5609 8049l55 -70c-120,-97 -216,-177 -325,-280l-64 64c44,39 79,77 124,119l-286 319 86 75 277 -329c44,35 89,68 133,102z"/>
   <path class="fil1" d="M6395 8521c-12,32 -43,62 -76,47l-120 -45 1 -2 11 -30 29 -83 131 48c18,9 24,20 27,35 4,11 0,22 -3,30zm22 -143l-235 -90 -86 203 -12 30 -106 246c33,17 66,27 100,39l84 -203 103 44 4 230c38,16 78,27 114,36l-18 -244c76,-9 124,-80 132,-149l0 -29c-4,-47 -28,-94 -80,-113z"/>
   <path class="fil1" d="M4921 7130l-449 262c16,32 33,69 53,99l450 -263c-22,-40 -34,-61 -54,-98z"/>
   <path class="fil1" d="M6947 8496l-38 318 -153 -349c-36,-7 -58,-16 -94,-21l-120 514c37,10 72,14 111,20l64 -316 155 352c35,5 75,17 115,16l58 -532c-30,-1 -66,4 -98,-2z"/>
   <path class="fil1" d="M10487 6564c-14,56 -56,96 -121,77l-491 -142c-47,-14 -85,-62 -81,-122 176,-915 -48,-1654 -584,-2248 -54,-38 -59,-117 -7,-172l355 -357c23,-41 103,-49 151,10 685,720 1031,1827 778,2954zm-152 468c-482,1225 -1682,2096 -3069,2096 -1388,0 -2582,-865 -3062,-2090 -28,-68 4,-115 57,-135l489 -167c26,-10 95,-10 123,62 380,952 1321,1618 2393,1618 1070,0 1994,-651 2391,-1603 36,-87 103,-87 128,-77l492 167c53,20 83,65 58,129zm-6276 -466c-253,-1129 92,-2232 775,-2952 54,-55 117,-55 152,-15l356 358c52,55 46,134 -8,172 -535,594 -759,1334 -583,2248 4,60 -34,108 -80,122l-490 142c-65,19 -108,-21 -122,-75zm5041 -2198c-8,39 -50,59 -87,77l-1152 556c-44,21 -86,25 -122,5 -32,-20 -54,-58 -57,-107l-91 -1279c-5,-57 2,-96 27,-115 24,-22 60,-14 91,-6 553,131 956,364 1349,779 30,30 44,58 42,80 2,4 0,8 0,10zm-825 1556c-41,-27 -62,-64 -62,-103 0,-38 21,-76 62,-103l1057 -719c51,-35 88,-47 116,-37 29,13 45,48 54,82 162,540 162,1008 0,1554 -13,49 -34,76 -59,83 -36,13 -75,-14 -110,-37l-1058 -720zm-683 2092l93 -1275c3,-51 24,-87 58,-109 35,-18 77,-18 121,3l1153 559c53,25 79,52 86,82 7,31 -18,59 -42,86 -393,412 -796,645 -1346,777 -49,12 -81,8 -100,-7 -29,-26 -24,-74 -23,-116zm-1151 -2187c0,-455 370,-826 825,-826 455,1 825,371 825,826 0,455 -370,825 -825,825 -455,0 -825,-370 -825,-825zm-986 1458c6,-38 49,-59 89,-78l1150 -559c46,-21 88,-21 123,-1 34,19 52,56 56,105 0,0 94,1277 94,1279 4,60 -3,99 -28,117 -25,19 -59,14 -94,3 -551,-129 -953,-361 -1349,-778 -28,-29 -43,-56 -43,-78 0,-3 2,-8 2,-10zm21 -3000c396,-413 798,-647 1350,-779 34,-6 70,-12 95,9 22,18 31,55 26,116l-93 1277c-3,49 -24,86 -57,107 -34,18 -77,18 -123,-4l-1150 -559c-39,-18 -83,-38 -87,-76 -8,-25 7,-55 39,-91zm786 1440c39,27 63,63 63,104 0,38 -24,75 -63,101l-1056 720c-51,35 -90,46 -116,35 -32,-9 -44,-44 -55,-80 -160,-541 -160,-1007 0,-1556 14,-45 33,-73 60,-81 33,-15 73,13 111,37l1056 720zm-1048 -2477c562,-448 1279,-723 2051,-723 776,0 1482,275 2055,720 74,62 74,120 35,162l-342 380c-49,52 -100,42 -168,-9 -436,-338 -989,-538 -1579,-538 -589,0 -1142,200 -1573,538 -69,54 -122,61 -169,9l-342 -380c-38,-42 -41,-100 32,-159zm6200 2447l-1 -10 -11 -7c-177,-105 -404,-166 -632,-171 -5,-30 -32,-241 -36,-271 216,-61 422,-178 567,-328l8 -8 -2 -10c-10,-82 -42,-193 -70,-262l-4 -11 -12 -2c-197,-56 -435,-55 -651,0 -15,-27 -93,-221 -105,-250 193,-118 361,-283 463,-461l7 -10 -7 -13c-28,-68 -85,-167 -135,-231l-7 -10 -9 0c-206,-3 -433,59 -634,167 -20,-25 -149,-195 -167,-219 155,-161 277,-366 328,-568l4 -10 -9 -9c-46,-61 -128,-146 -189,-192l-9 -9 -9 5c-202,50 -407,169 -568,326 -26,-20 -197,-153 -220,-171 107,-191 170,-414 170,-618l0 -28 -9 -6c-62,-48 -161,-105 -232,-135l-11 -5 -11 5c-179,102 -345,269 -460,462 -29,-12 -236,-99 -263,-110 27,-108 43,-220 45,-331 0,-113 -14,-222 -45,-322l-3 -12 -9 -3c-71,-31 -181,-61 -262,-70l-10 -3 -7 7c-149,145 -266,349 -330,567 -30,-3 -243,-31 -276,-38 0,-222 -62,-451 -170,-629l-6 -9 -10 -3c-76,-9 -191,-9 -269,0l-11 3 -5 9c-107,178 -168,407 -173,631 -29,5 -247,33 -278,36 -62,-218 -180,-424 -328,-568l-10 -8 -12 2c-79,12 -190,42 -257,70l-11 3 -2 12c-30,101 -44,210 -44,325 -1,110 15,221 43,329 -29,11 -237,101 -265,112 -117,-193 -284,-361 -462,-462l-12 -5 -8 5c-72,29 -173,87 -233,134l-10 7 0 30c0,199 61,423 171,616 -23,18 -183,141 -206,159 -160,-155 -365,-276 -568,-328l-9 -2 -10 6c-60,48 -143,129 -193,192l-4 9 2 9c51,202 169,405 325,568 -18,24 -152,205 -171,227 -196,-109 -424,-172 -631,-169l-12 0 -8 9c-45,62 -102,160 -133,232l-5 10 5 12c101,179 270,346 464,463 -12,29 -92,222 -104,248 -219,-53 -458,-55 -655,3l-10 3 -4 10c-30,68 -61,178 -71,260l-2 12 6 7c147,147 353,265 568,327 -3,29 -30,243 -35,273 -228,3 -457,64 -635,169l-9 5 -1 12c-5,40 -6,87 -6,135 0,49 1,97 6,134l1 13 9 5c178,106 407,165 635,168 3,31 35,250 38,281 -218,65 -422,182 -568,330l-7 9 3 12c12,80 41,193 68,261l6 9 10 3c199,56 436,54 654,0 14,27 96,220 109,250 -192,115 -360,281 -463,461l-5 10 5 10c31,72 88,173 135,236l7 7 11 0c205,5 435,-59 632,-169 19,26 152,199 170,223 -155,159 -274,364 -327,565l-3 11 7 10c49,62 127,142 188,191l11 7 10 -3c199,-51 405,-169 567,-325 24,18 201,152 224,171 -106,196 -168,419 -168,623l0 21 8 8c63,47 160,103 234,136l12 3 9 -5c179,-100 348,-270 465,-466 27,13 216,89 244,101 -28,108 -43,218 -43,327 0,113 15,226 46,326l3 10 9 4c71,29 178,61 259,73l13 1 7 -7c149,-147 266,-352 326,-566 31,2 250,34 281,37 5,226 67,454 171,632l7 9 9 2c79,11 195,11 267,0l12 -2 6 -9c107,-178 169,-406 173,-632 29,-6 237,-35 264,-37 61,216 178,422 330,567l7 8 12 -2c79,-13 192,-41 259,-69l11 -6 2 -10c27,-101 46,-213 46,-325 -3,-111 -19,-223 -46,-331 27,-12 228,-98 255,-110 116,193 286,361 463,464l12 4 7 -3c72,-30 173,-88 234,-137l12 -7 0 -28c0,-201 -64,-423 -170,-617 25,-18 190,-147 213,-165 162,156 370,275 566,328l15 3 7 -7c61,-49 145,-131 190,-192l6 -8 -3 -10c-48,-202 -167,-407 -324,-569 18,-23 151,-199 169,-223 199,111 427,172 631,169l13 0 5 -9c50,-61 106,-163 136,-234l3 -10 -5 -10c-95,-177 -264,-343 -455,-464 8,-28 89,-220 99,-247 218,54 454,56 654,-2l10 -1 4 -11c32,-71 61,-180 72,-262l0 -9 -6 -9c-144,-150 -351,-266 -564,-328 4,-29 29,-235 34,-264 229,-7 457,-66 634,-172l11 -5 1 -11c6,-39 8,-87 8,-136 0,-49 -2,-96 -8,-135z"/>
   <path class="fil1" d="M5209 7549l-243 210 124 -360c-22,-31 -32,-53 -55,-81l-436 296c19,29 43,56 64,86l262 -181 -123 363c21,24 43,61 73,85l403 -346c-22,-24 -49,-45 -69,-72z"/>
   <path class="fil1" d="M8116 8373l173 494c34,-11 70,-22 104,-37l-167 -492c-47,16 -68,22 -110,35z"/>
   <path class="fil1" d="M9096 7792l216 233 -363 -107c-30,23 -51,31 -77,54l316 425c27,-21 54,-46 80,-68l-192 -255 367 110c25,-22 61,-47 86,-78l-366 -386c-20,21 -42,49 -67,72z"/>
   <path class="fil1" d="M8805 8521c-12,13 -27,25 -45,35 -69,39 -157,25 -207,-35 -9,-8 -14,-17 -18,-25 -16,-25 -23,-56 -25,-83 0,-59 29,-116 85,-147 81,-46 183,-20 227,61 15,27 23,55 23,86 0,37 -15,78 -40,108zm-259 -334c-83,48 -128,134 -131,226 3,36 10,73 25,107 5,8 9,16 11,23 74,126 232,169 354,97 50,-29 86,-72 111,-120 15,-34 22,-71 22,-107 -2,-46 -12,-91 -35,-130 -73,-124 -233,-166 -357,-96z"/>
   <path class="fil1" d="M7272 8846l35 -106 36 -109 41 109 40 99 -152 7zm128 -325l-6 -14 -115 6 -4 7 -69 220 -98 290c36,0 70,1 106,4l26 -93 226 -6 35 88c33,-4 68,-7 105,-9l-113 -274 -93 -219z"/>
   <path class="fil1" d="M7992 8417c-152,33 -269,61 -420,85l14 87c56,-9 107,-15 166,-23l76 423 112 -21 -91 -422c58,-14 111,-28 168,-42l-25 -87z"/>
   <path class="fil1" d="M6784 5832c0,-215 140,-404 347,-467 2,-22 8,-134 8,-134l249 0c0,0 6,103 9,125 216,54 373,251 373,476 0,272 -223,495 -495,495 -268,0 -491,-223 -491,-495zm1225 -3c0,-411 -331,-745 -743,-745 -409,0 -743,334 -743,745 0,409 334,744 743,744 410,0 743,-334 743,-744z"/>
  </g>
  <path class="fil1" d="M5822 12048c-39,1 -111,5 -157,5 -126,0 -132,-62 -132,-241l0 -517 294 0c26,0 47,-21 47,-48l0 -165c0,-26 -21,-47 -47,-47l-294 0 0 -244c0,-14 -7,-28 -19,-37 -11,-9 -26,-13 -41,-9l-192 47c-22,5 -37,24 -37,47l0 196 -112 0c-26,0 -48,21 -48,47l0 165c0,27 22,48 48,48l112 0 0 558c0,364 89,476 380,476 58,0 150,-15 217,-28 24,-4 40,-26 39,-49l-8 -159c-1,-27 -24,-46 -50,-45zm-1331 -1022c-4,0 -15,-1 -38,-1 -3,0 -6,0 -9,0l0 0c-8,0 -16,0 -25,0 -128,0 -253,80 -331,136l0 -79c0,-26 -21,-47 -48,-47l-193 0c-26,0 -48,21 -48,47l0 1168c0,27 22,48 48,48l193 0c27,0 48,-21 48,-48l0 -807c44,-36 178,-137 339,-151 0,0 1,-1 1,-1l0 1c99,0 156,45 157,140l0 818c0,27 22,48 48,48l193 0c27,0 48,-21 48,-48l0 -797c0,-276 -122,-413 -383,-427zm-1063 -443l-200 0c-2,0 -3,1 -5,1l0 -1c-1,1 -2,1 -2,1 -5,1 -9,2 -13,4 -1,1 -3,1 -4,2 -4,2 -7,5 -11,8 0,1 -1,2 -2,3 -3,4 -5,8 -7,12 0,1 0,1 -1,2 -2,5 -3,10 -3,16 0,0 0,0 0,0l0 1619c0,27 22,48 49,48l200 0c2,0 3,0 5,0l0 0c1,0 1,0 2,-1 5,0 9,-2 13,-3 1,-1 3,-2 4,-2 4,-3 7,-5 10,-9 1,-1 2,-2 3,-2 2,-4 5,-8 7,-13 0,0 0,-1 1,-2 1,-4 2,-10 2,-15l1 0 0 -1620c0,-26 -22,-48 -49,-48zm6538 684c138,0 266,32 370,41 13,1 27,-3 36,-12 10,-8 16,-21 17,-34l6 -160c1,-24 -17,-45 -40,-49 -94,-15 -243,-49 -389,-49 -394,0 -569,202 -569,656 0,3 0,7 0,10l0 0c0,453 175,656 569,656 146,0 295,-34 389,-49 23,-4 41,-25 40,-49l-6 -161c-1,-12 -7,-25 -17,-34 -9,-8 -23,-12 -36,-11 -104,9 -232,40 -370,40 -176,0 -254,-77 -272,-286 0,-4 0,-8 -1,-13 0,-8 -1,-16 -1,-25 0,-8 -1,-17 -1,-27 0,-6 0,-12 0,-19 0,-10 -1,-21 -1,-32 0,-290 73,-393 276,-393zm1335 781c-39,1 -112,5 -158,5 -125,0 -131,-62 -131,-241l0 -517 293 0c27,0 48,-21 48,-48l0 -165c0,-26 -21,-47 -48,-47l-293 0 0 -244c0,-14 -7,-28 -19,-37 -12,-9 -27,-13 -41,-9l-193 47c-21,5 -36,24 -36,47l0 196 -112 0c-26,0 -48,21 -48,47l0 165c0,27 22,48 48,48l112 0 0 558c0,364 89,476 380,476 57,0 150,-15 217,-28 23,-4 40,-26 39,-49l-8 -159c-1,-27 -25,-46 -50,-45zm-2406 -21c-2,1 -183,51 -317,51 -112,0 -129,-104 -129,-165 0,-100 54,-151 167,-162l279 -15 0 291zm-142 -1023c-146,0 -378,34 -472,49 -24,4 -41,25 -40,49l6 160c0,13 6,26 16,34 10,9 23,13 36,12 105,-9 301,-25 439,-25 100,0 157,55 157,151l0 77 -314 25c-301,22 -423,134 -423,385 0,258 134,405 367,405 194,0 411,-88 413,-89 46,36 93,67 191,81 14,1 27,-3 38,-12 11,-9 17,-22 17,-36l0 -838c0,-292 -137,-428 -431,-428zm-2406 590c1,-10 1,-19 2,-28l1 -12c13,-156 59,-244 153,-280 35,-11 76,-19 119,-19 189,0 193,100 193,162 0,100 -54,151 -168,162l-300 15zm759 -185c0,-257 -120,-405 -484,-405 -17,0 -32,1 -47,2 -361,16 -523,219 -523,654 0,3 0,7 0,10l0 0c0,149 13,274 47,374 55,191 220,282 412,282 19,0 40,-1 62,-2 16,0 32,-1 49,-2l0 -1c134,-10 288,-33 360,-44 24,-4 42,-25 41,-49l-6 -161c-1,-12 -7,-25 -17,-34 -10,-8 -23,-12 -36,-11 -90,8 -248,21 -377,24 -124,0 -192,-49 -222,-172l-9 -55 327 -25c300,-22 423,-134 423,-385zm881 -384c-128,7 -253,80 -331,136l0 -79c0,-26 -22,-47 -48,-47l-193 0c-27,0 -48,21 -48,47l0 1168c0,27 21,48 48,48l193 0c26,0 48,-21 48,-48l0 -807c43,-36 178,-137 338,-151 25,-3 44,-23 44,-48l0 -171c0,-14 -5,-26 -15,-35 -10,-9 -23,-14 -36,-13z"/>
  <path class="fil2" d="M5459 13623c24,0 50,-4 77,-12 27,-8 50,-17 69,-27l5 119c-10,4 -22,8 -36,12 -13,4 -28,7 -42,10 -15,2 -29,5 -44,6 -14,2 -28,3 -42,3 -52,0 -100,-7 -143,-22 -43,-15 -81,-37 -113,-66 -31,-29 -56,-64 -73,-107 -17,-42 -26,-91 -26,-147 0,-56 8,-105 25,-149 17,-44 40,-81 71,-112 30,-30 68,-54 112,-70 44,-16 93,-24 147,-24 14,0 29,0 45,2 15,2 30,4 45,8 15,3 28,8 40,12 12,5 23,11 31,16l-10 114c-21,-15 -43,-26 -69,-33 -25,-7 -51,-11 -76,-11 -34,0 -64,6 -91,17 -26,12 -49,28 -68,48 -19,21 -33,45 -43,73 -10,28 -15,59 -15,92 0,35 5,67 15,97 10,30 25,56 44,79 19,22 42,39 70,52 28,13 59,20 95,20zm366 96l-128 0 0 -721 128 0 0 721zm575 -496l0 303c0,32 1,65 3,97 1,31 3,64 5,96l-121 0 -4 -76c-17,27 -39,47 -68,62 -28,15 -57,23 -89,23 -37,0 -66,-6 -89,-17 -23,-12 -40,-28 -53,-48 -13,-21 -22,-45 -26,-72 -5,-28 -7,-57 -7,-88l0 -280 128 0 0 239c0,17 1,34 2,53 1,18 4,35 10,51 5,15 14,28 26,39 13,10 30,15 52,15 22,0 39,-5 53,-16 13,-10 24,-24 31,-40 8,-17 13,-35 16,-54 2,-20 3,-38 3,-54l0 -233 128 0zm257 496l-120 0 0 -721 128 0 0 220c0,16 0,31 -1,46 0,15 -2,31 -4,47 33,-65 87,-97 162,-97 35,0 65,7 90,21 25,14 46,32 62,55 16,23 28,49 35,79 8,30 12,61 12,92 0,33 -4,65 -11,97 -7,32 -18,60 -33,85 -16,25 -37,46 -64,61 -26,16 -58,24 -97,24 -34,0 -65,-7 -92,-20 -27,-14 -48,-36 -64,-67l-3 78zm122 -92c19,0 36,-5 50,-15 14,-11 25,-23 34,-38 9,-16 15,-32 19,-51 3,-18 5,-35 5,-51 0,-16 -1,-34 -5,-52 -3,-18 -9,-34 -18,-49 -8,-14 -19,-26 -32,-36 -14,-9 -31,-14 -51,-14 -21,0 -39,5 -53,14 -15,10 -27,22 -36,37 -9,15 -15,31 -19,50 -5,18 -7,36 -7,53 0,19 2,36 7,54 4,18 10,34 19,49 9,14 20,26 34,35 15,9 32,14 53,14zm775 92l-137 0 0 -668 219 0c30,0 59,2 88,7 29,4 55,13 77,26 23,13 41,31 55,54 14,23 21,52 21,89 0,43 -12,79 -37,107 -24,27 -57,45 -99,51 13,5 23,11 32,18 8,6 15,14 21,23 6,9 11,18 16,28 4,10 9,21 14,32l97 233 -151 0 -73 -189c-8,-20 -16,-36 -24,-48 -8,-11 -17,-20 -28,-26 -11,-6 -24,-10 -38,-11 -15,-2 -32,-3 -53,-3l0 277zm-1 -380l59 0c15,0 30,-2 45,-5 15,-3 27,-8 38,-15 12,-8 21,-17 28,-29 7,-12 10,-26 10,-43 0,-18 -3,-32 -8,-43 -6,-12 -14,-21 -24,-28 -10,-7 -21,-12 -35,-15 -13,-3 -27,-5 -42,-5l-71 0 0 183zm892 -116l0 303c0,32 1,65 2,97 2,31 3,64 5,96l-120 0 -5 -76c-16,27 -39,47 -67,62 -28,15 -58,23 -89,23 -37,0 -67,-6 -89,-17 -23,-12 -40,-28 -53,-48 -13,-21 -22,-45 -26,-72 -5,-28 -7,-57 -7,-88l0 -280 128 0 0 239c0,17 1,34 2,53 1,18 4,35 10,51 5,15 14,28 26,39 12,10 29,15 52,15 21,0 39,-5 52,-16 14,-10 25,-24 32,-40 8,-17 13,-35 15,-54 3,-20 4,-38 4,-54l0 -233 128 0zm260 506c-24,0 -48,-2 -72,-7 -24,-4 -49,-9 -73,-15l6 -108c20,9 41,17 62,24 21,7 42,10 64,10 9,0 18,-1 28,-3 11,-1 21,-4 30,-9 9,-4 16,-9 22,-17 6,-7 9,-16 9,-27 0,-13 -6,-23 -17,-31 -11,-8 -25,-15 -41,-21 -16,-7 -34,-14 -54,-21 -19,-7 -37,-16 -53,-27 -17,-12 -30,-26 -41,-44 -12,-17 -17,-40 -17,-67 0,-28 6,-51 19,-71 13,-19 30,-35 50,-47 21,-13 43,-21 68,-26 25,-6 49,-8 72,-8 21,0 42,2 62,6 21,3 41,8 61,13l-9 95c-17,-5 -35,-10 -52,-13 -17,-4 -35,-5 -53,-5 -9,0 -18,0 -28,1 -10,1 -20,4 -29,8 -9,3 -17,9 -24,15 -6,7 -9,16 -9,26 0,12 6,22 17,30 11,7 25,14 42,19 16,7 35,13 54,19 19,7 37,16 54,27 16,11 30,26 42,44 11,18 16,42 16,71 0,29 -6,53 -18,73 -12,19 -28,36 -48,49 -19,13 -41,22 -66,28 -25,6 -49,9 -74,9zm553 -93c28,0 55,-5 80,-14 25,-10 50,-21 74,-35l3 112c-27,11 -54,20 -84,25 -28,5 -57,8 -87,8 -82,0 -146,-23 -191,-68 -46,-46 -69,-110 -69,-192 0,-37 6,-72 16,-104 11,-32 27,-60 48,-83 20,-23 45,-41 75,-55 30,-13 65,-19 104,-19 38,0 71,7 99,21 28,13 51,32 69,55 18,24 32,51 40,82 9,31 13,65 13,100 0,8 0,15 -1,22 0,7 -1,14 -2,22l-335 0c4,40 19,71 47,92 27,21 61,31 101,31zm67 -213c0,-15 -3,-30 -7,-45 -3,-15 -9,-28 -18,-40 -8,-11 -19,-20 -32,-27 -12,-7 -28,-11 -46,-11 -18,0 -34,4 -47,10 -14,7 -25,16 -35,27 -9,12 -17,25 -22,40 -5,15 -8,30 -10,46l217 0z"/>
 </g>
</svg>
