<?xml version="1.0" encoding="UTF-8"?>
<!DOCTYPE svg PUBLIC "-//W3C//DTD SVG 1.1//EN" "http://www.w3.org/Graphics/SVG/1.1/DTD/svg11.dtd">
<!-- Creator: CorelDRAW X7 -->
<svg xmlns="http://www.w3.org/2000/svg" xml:space="preserve" width="8.8112mm" height="8.4667mm" version="1.1" style="shape-rendering:geometricPrecision; text-rendering:geometricPrecision; image-rendering:optimizeQuality; fill-rule:evenodd; clip-rule:evenodd"
viewBox="0 0 16 16"
 xmlns:xlink="http://www.w3.org/1999/xlink">
 <defs>
  <style type="text/css">
   <![CDATA[
    .fil0 {fill:#9C9C9C;fill-rule:nonzero}
   ]]>
  </style>
 </defs>
 <g id="Layer_x0020_1">
  <metadata id="CorelCorpID_0Corel-Layer"/>
  <g id="_2283024158800">
   <path class="fil0" d="M2 0l12 0c1,0 1,0 2,1l0 0c0,0 0,1 0,1l0 11c0,1 0,2 0,2l0 0c-1,0 -1,1 -2,1l-12 0c0,0 -1,-1 -1,-1l0 0c-1,0 -1,-1 -1,-2l0 -11c0,0 0,-1 1,-1l0 0c0,-1 1,-1 1,-1zm12 1l-12 0c0,0 0,0 -1,0 0,1 0,1 0,1l0 11c0,1 0,1 0,1l0 0c1,1 1,1 1,1l12 0c0,0 1,0 1,-1 0,0 0,0 0,-1l0 -11c0,0 0,0 0,-1l0 0c0,0 -1,0 -1,0z"/>
   <path class="fil0" d="M11 16l0 -7 2 0 0 -2 -2 0 0 -2c0,0 0,-1 1,-1l1 0 0 -2c0,0 -1,0 -2,0 -2,0 -3,1 -3,3l0 2 -2 0 0 2 2 0 0 7 3 0 0 0z"/>
  </g>
 </g>
</svg>
