<?xml version="1.0" encoding="UTF-8"?>
<!DOCTYPE svg PUBLIC "-//W3C//DTD SVG 1.1//EN" "http://www.w3.org/Graphics/SVG/1.1/DTD/svg11.dtd">
<!-- Creator: CorelDRAW X7 -->
<svg xmlns="http://www.w3.org/2000/svg" xml:space="preserve" width="8.8113mm" height="8.4667mm" version="1.1" style="shape-rendering:geometricPrecision; text-rendering:geometricPrecision; image-rendering:optimizeQuality; fill-rule:evenodd; clip-rule:evenodd"
viewBox="0 0 15 14"
 xmlns:xlink="http://www.w3.org/1999/xlink">
 <defs>
  <style type="text/css">
   <![CDATA[
    .fil0 {fill:#9C9C9C;fill-rule:nonzero}
   ]]>
  </style>
 </defs>
 <g id="Layer_x0020_1">
  <metadata id="CorelCorpID_0Corel-Layer"/>
  <g id="_2283018638432">
   <path class="fil0" d="M2 0l11 0c0,0 1,0 1,1l0 0c1,0 1,1 1,1l0 10c0,1 0,1 -1,2l0 0c0,0 -1,0 -1,0l-11 0c0,0 -1,0 -1,0l0 0c-1,-1 -1,-1 -1,-2l0 -10c0,0 0,-1 1,-1l0 0c0,-1 1,-1 1,-1zm11 1l-11 0c0,0 0,0 -1,0 0,1 0,1 0,1l0 10c0,0 0,1 0,1l0 0c1,0 1,0 1,0l11 0c0,0 0,0 1,0 0,0 0,-1 0,-1l0 -10c0,0 0,0 0,-1l0 0c-1,0 -1,0 -1,0z"/>
   <path class="fil0" d="M12 12l-2 0 0 -3c0,-1 0,-1 -1,-1 0,0 -1,0 -1,0 0,0 0,1 0,1l0 3 -2 0c0,0 0,-5 0,-6l2 0 0 1c0,0 1,-1 2,-1 1,0 2,1 2,3l0 3zm-8 -7l0 0c-1,0 -1,0 -1,-1 0,0 0,-1 1,-1 0,0 1,1 1,1 0,1 -1,1 -1,1zm1 7l-2 0 0 -6 2 0 0 6z"/>
  </g>
 </g>
</svg>
