<?xml version="1.0" encoding="UTF-8"?>
<!DOCTYPE svg PUBLIC "-//W3C//DTD SVG 1.1//EN" "http://www.w3.org/Graphics/SVG/1.1/DTD/svg11.dtd">
<!-- Creator: CorelDRAW X7 -->
<svg xmlns="http://www.w3.org/2000/svg" xml:space="preserve" width="120.999mm" height="37.5274mm" version="1.1" style="shape-rendering:geometricPrecision; text-rendering:geometricPrecision; image-rendering:optimizeQuality; fill-rule:evenodd; clip-rule:evenodd"
viewBox="0 0 2471 766"
 xmlns:xlink="http://www.w3.org/1999/xlink">
 <defs>
  <style type="text/css">
   <![CDATA[
    .fil2 {fill:#888887}
    .fil0 {fill:#354992}
    .fil3 {fill:#D8AF2D}
    .fil1 {fill:#888887;fill-rule:nonzero}
   ]]>
  </style>
 </defs>
 <g id="Layer_x0020_1">
  <metadata id="CorelCorpID_0Corel-Layer"/>
  <g id="_2282865641072">
   <g>
    <path class="fil0" d="M1164 596l0 -34c-6,-3 -9,-8 -9,-18l0 -11 -123 0 0 11c0,10 -4,15 -9,18l0 34 141 0z"/>
    <polygon class="fil0" points="1032,520 1155,520 1155,526 1032,526 "/>
    <path class="fil0" d="M1123 514l24 0c-2,-5 -6,-8 -11,-8 -7,0 -11,4 -13,8l0 0z"/>
    <path class="fil0" d="M1037 516l20 0c5,-4 11,-6 19,-5 -5,-3 -9,-6 -12,-10 -6,4 -13,8 -20,10 -5,1 -8,1 -9,3 0,1 0,2 2,2l0 0z"/>
    <path class="fil0" d="M1152 504l0 -12c0,-7 -6,-10 -14,-10 -33,0 -43,-6 -64,-19 -21,-12 -36,-57 -39,-59 2,19 4,37 7,55l12 -3 7 43c6,1 16,6 25,11 -5,-4 -11,-9 -17,-13 -7,-4 -6,-6 1,-4 10,3 18,7 27,12 10,5 18,5 26,0 11,-8 20,-8 29,-1l0 0z"/>
    <path class="fil0" d="M1065 465c9,13 29,38 44,41 7,1 13,-3 15,-7 2,-2 5,-5 7,-8 2,-1 1,-3 -1,-2 -3,1 -8,3 -13,4 -8,4 -17,2 -26,-6 -9,-7 -18,-15 -26,-22l0 0z"/>
    <path class="fil0" d="M1153 480c3,-5 3,-10 -1,-14 -2,-3 -2,-5 -1,-8 2,-6 0,-9 -6,-9 -29,-2 -45,-15 -59,-30 -22,-22 -30,-54 -39,-83 1,22 7,44 15,66 13,42 28,54 41,58 -12,-11 -20,-25 -26,-40 15,20 31,39 51,48 -19,2 -35,-5 -47,-17 -12,-14 -26,-33 -37,-95 -4,-22 -5,-43 -5,-60 15,62 33,105 54,122 -13,-17 -24,-36 -29,-59 -4,-21 -8,-41 -16,-61 -5,-17 -10,-34 -12,-52 -5,15 -7,51 -7,95 0,41 13,68 28,91 19,29 43,43 71,45 14,0 21,-3 25,3l0 0z"/>
    <path class="fil0" d="M1128 443c8,1 15,1 22,0 1,-7 -1,-15 -1,-22 -1,9 -2,15 -21,22l0 0z"/>
    <path class="fil0" d="M1102 424c11,11 27,19 40,5 6,-7 4,-22 0,-31 -3,-6 -7,-10 -15,-10 -3,0 -5,-1 -6,-3 -1,-3 -5,-3 -8,-4 -6,-3 -9,-7 -11,-10 0,-2 -1,-4 -2,-5 -3,-2 -5,-6 -7,-11 14,14 25,20 33,15 2,-2 5,-2 8,-3 1,-1 1,-3 0,-4 -1,-1 -2,-1 -3,0 -4,3 -8,3 -12,1 7,-2 12,-8 15,-22 -12,2 -19,-3 -25,-9 8,4 15,7 23,5 7,-3 8,-8 8,-13 -9,9 -17,10 -24,4 17,-1 23,-10 28,-29l6 -34c-5,3 -10,5 -16,6 -3,0 -6,1 -9,1 -6,-1 -14,-4 -24,-9 -6,-3 -10,-8 -15,-13 -6,-6 -13,-10 -20,-15 -6,-4 -11,-8 -16,-13 -1,4 -3,7 -6,11 0,-3 -1,-6 -1,-9 0,-2 -1,-1 -2,1 -3,11 0,22 2,34 6,25 15,43 25,58 8,11 15,22 24,31 -7,-3 -15,-11 -23,-24 -4,12 0,36 11,64 6,14 14,26 22,35l0 0z"/>
    <path class="fil0" d="M1100 325c-9,-12 -17,-18 -23,-29 -6,-11 -6,-13 -4,-35 -3,4 -6,8 -7,14 -3,-11 -5,-17 -7,-29 -1,-5 -3,-6 -5,-13 0,5 -2,11 -1,16 2,18 9,33 17,46 9,15 19,24 30,30l0 0z"/>
    <path class="fil0" d="M1120 381c4,2 9,3 15,3 -1,-3 -4,-5 -4,-7 -4,2 -7,3 -11,4l0 0z"/>
    <path class="fil0" d="M1023 332c-9,5 -14,11 -17,16 -2,3 -2,6 1,9 3,4 8,7 13,10 -3,-16 -1,-27 3,-35l0 0z"/>
    <path class="fil0" d="M1009 321c1,5 1,9 2,13 2,-2 5,-2 8,-4 3,-2 0,-4 -3,-6 -2,-1 -4,-2 -7,-3l0 0z"/>
    <path class="fil0" d="M1024 321c0,-26 2,-58 10,-106 0,-4 -2,-3 -3,0 -3,14 -7,28 -11,42 -3,5 -5,10 -5,17 -5,8 -8,19 -9,31 5,6 11,8 18,16l0 0z"/>
    <path class="fil0" d="M1012 256c3,-16 13,-32 18,-51 -9,12 -18,24 -22,37 1,5 2,11 4,14l0 0z"/>
    <path class="fil0" d="M1014 216l19 -21c-3,0 -7,1 -10,6 -4,3 -6,6 -9,8 0,3 0,5 0,7l0 0z"/>
    <path class="fil0" d="M1137 231l2 10 12 -4c1,-6 1,-14 -2,-22 -2,5 -6,9 -9,13 -1,1 -2,2 -3,3l0 0z"/>
    <path class="fil0" d="M1118 228c-3,1 -5,4 -4,8 0,4 8,10 14,7 4,-1 6,-5 6,-9 -1,1 -3,2 -5,3l-7 2 -3 -6c-1,-1 -1,-3 -1,-5l0 0z"/>
    <path class="fil0" d="M1037 206c8,6 16,12 24,19 10,9 17,15 24,18 17,16 34,27 49,25 6,-1 12,-4 18,-6 4,-1 7,-3 9,-5l-4 -2c1,-5 0,-10 -1,-14 -4,2 -8,3 -14,4 -4,0 -7,1 -10,3 -8,2 -14,0 -19,-5 -5,-7 -5,-15 3,-21 1,0 1,0 1,0 0,-6 1,-12 3,-18l1 -2 7 -15c-23,2 -43,8 -60,17l14 11c4,3 4,5 1,3 -3,-1 -5,-3 -9,-3 -8,-6 -15,-12 -20,-19 -5,-5 -11,-5 -18,-2 2,1 4,1 6,1 3,0 5,3 8,5l14 12c3,2 5,4 8,7 3,3 7,6 11,8 -3,0 -5,-1 -8,-3 -3,-2 -5,-4 -7,-6 -1,1 -1,2 1,5 0,1 1,2 1,4 -3,-2 -5,-5 -8,-8l-8 -10 -10 -6c-2,-2 -3,-2 -4,-1l-3 4z"/>
    <path class="fil0" d="M1151 148c5,-1 10,-2 14,-3 2,0 4,1 6,0 2,2 7,4 8,6l15 18c4,5 9,9 14,10 7,2 14,4 20,5 5,1 9,1 12,-2 1,-1 1,-10 1,-14 0,-7 -5,-13 -11,-16 -6,-3 -18,-5 -26,-7 -6,-1 -11,-3 -16,-7 -8,-7 -18,-11 -31,-13 -9,-2 -17,1 -22,8 -2,3 0,4 2,3 2,-2 4,-4 6,-5 2,0 4,1 1,3 -1,2 -4,3 -6,5 -3,3 -1,4 1,3 2,0 3,-2 5,-3 2,-2 4,0 1,2 -2,1 -4,3 -5,5 -2,2 0,3 2,1 1,-1 2,-2 3,-3 1,0 2,-1 2,0 1,0 1,1 0,2 -2,1 -4,3 -5,4 -1,2 1,3 3,2 2,-2 3,-4 6,-4l0 0z"/>
    <path class="fil0" d="M1173 102l-8 18c4,1 7,2 11,3 2,1 4,2 6,4l9 -20c1,-3 4,-4 8,-2l1 -3 -29 -12 -1 4c3,3 5,5 3,8l0 0z"/>
    <path class="fil0" d="M1148 156l-21 47c-5,11 -5,22 -2,29 6,-3 18,-16 22,-26l24 -53c-1,-1 -1,-1 -2,-1 -1,0 -2,-1 -3,-1 -5,1 -10,1 -14,2 -1,0 -1,1 -2,1 -1,1 -1,2 -2,2l0 0z"/>
    <path class="fil0" d="M1175 165l-3 6c5,9 11,18 17,25 0,-6 -2,-19 -2,-24 -3,-1 -7,-4 -12,-7l0 0z"/>
    <path class="fil0" d="M1191 174l2 19 4 -6c3,-3 -1,-9 -6,-13l0 0z"/>
    <path class="fil0" d="M1195 116c-4,6 -6,11 -6,15 1,0 2,1 2,2 3,1 5,3 7,4 2,1 4,2 6,2 8,1 17,3 25,6 0,0 1,0 1,0 -4,-4 -10,-10 -18,-15 -8,-5 -14,-9 -17,-14l0 0z"/>
    <path class="fil0" d="M1172 84l32 14c0,2 1,4 4,5 3,1 5,0 7,-3 1,-2 0,-6 -3,-7 -2,-1 -4,-1 -6,0l-11 -4c4,-8 8,-17 11,-27 -4,0 -7,-2 -10,-4 -5,8 -9,17 -13,26l-10 -4c0,-3 -1,-5 -3,-6 -4,-3 -8,0 -9,4 -1,3 0,7 4,8 3,1 5,0 7,-2l0 0z"/>
    <path class="fil0" d="M1197 52c2,4 6,7 11,7 4,-1 7,-3 6,-7 -1,-6 -6,-9 -10,-8 -7,1 -9,4 -7,8l0 0z"/>
    <path class="fil0" d="M1054 192l9 8c18,-10 36,-17 57,-17 -3,1 -4,2 -5,3 4,-1 9,-1 13,-1 1,-2 2,-4 3,-5 -11,-3 -24,-5 -43,-1 -13,3 -25,7 -34,13l0 0z"/>
    <path class="fil0" d="M1051 182l1 6 8 -4c-3,0 -6,0 -9,-2l0 0z"/>
    <path class="fil0" d="M1075 178c17,-6 37,-8 59,-6l3 -10c-24,1 -40,-4 -52,-13 -13,-9 -20,-18 -20,-27 0,-17 10,-25 20,-29l-4 -7c-10,4 -19,10 -26,22 -6,11 -7,21 -5,32 5,-4 11,-5 17,-2 9,5 11,12 14,20 2,9 -1,15 -6,20l0 0z"/>
    <path class="fil0" d="M1057 153c-2,-1 -5,1 -5,6 0,4 1,8 5,9 4,1 6,-2 6,-6 1,-5 -2,-8 -6,-9l0 0z"/>
    <path class="fil0" d="M1052 151c-3,4 -5,9 -2,17 2,5 8,9 12,6 4,-2 10,-10 7,-18 -3,-11 -10,-11 -17,-5l0 0z"/>
    <path class="fil0" d="M1055 143c-8,2 -12,9 -11,18 0,11 5,18 11,19 8,1 15,-3 18,-12 3,-8 2,-17 -3,-23 -4,-4 -9,-4 -15,-2l0 0z"/>
    <path class="fil0" d="M1157 118l8 -17c-19,-13 -41,-13 -65,-1 -5,3 -9,5 -10,8 -6,-2 -11,-1 -15,6 -2,5 0,14 8,18 9,6 17,1 22,-3 5,-7 1,-15 -7,-24 2,-1 4,-2 6,-1 8,6 11,14 10,24 -3,12 -13,16 -26,15 12,12 31,17 50,12 -11,-17 -15,-20 -4,-30 3,-2 5,-4 9,-5 4,-2 8,-2 13,-2 0,0 0,0 1,0l0 0z"/>
    <path class="fil0" d="M1100 86l1 10c7,-4 15,-6 24,-8l-1 -9c-8,2 -16,5 -24,7l0 0z"/>
    <path class="fil0" d="M1076 101l10 4c5,-3 9,-7 8,-12 0,-5 -1,-10 -3,-16 -2,-9 3,-13 7,-20 2,-3 1,-4 -2,-2 -5,6 -13,16 -11,24l1 8c2,8 -2,11 -10,14l0 0z"/>
    <path class="fil0" d="M1098 81l20 -6c-1,-2 -1,-5 -3,-7l-1 -9c0,-5 -4,-5 -7,-3 -11,6 -13,14 -9,25l0 0z"/>
    <path class="fil0" d="M1121 44c-1,3 -3,5 -3,8 4,0 7,-2 10,-10 1,-2 -1,-5 -1,-8 -1,-4 -3,-5 -6,-5 -2,1 -4,-1 -6,-3 -2,-2 -5,-3 -7,-2 -4,0 -9,0 -14,0 5,6 8,12 8,17 -2,-5 -6,-10 -12,-13 -3,-3 -6,-2 -9,-2 -9,2 -17,1 -27,3 -1,0 -3,0 -3,1 -1,1 0,5 0,6 0,0 1,0 2,0 11,-2 18,-3 25,3 2,1 4,3 5,6 3,5 6,8 17,7 7,0 14,-2 18,-7 3,-5 5,-4 3,-1l0 0z"/>
    <path class="fil0" d="M1085 57c-4,-1 -7,-4 -8,-10 0,-3 -1,-6 -4,-7l-18 0c1,2 1,4 1,6 1,4 0,7 0,11 -1,2 0,3 2,3 2,0 4,0 4,1 0,1 0,2 0,3 -1,0 -1,0 -1,1 1,2 1,3 4,1 1,-1 2,-3 3,-1 2,1 2,3 0,3 -1,1 -2,0 -3,0 -2,0 -2,1 -2,2 1,1 2,1 3,1 1,0 1,0 1,1 0,2 1,4 3,5 3,1 6,1 10,-3 3,-3 5,-7 6,-13 0,-2 0,-3 -1,-4l0 0z"/>
    <path class="fil0" d="M1063 43c-3,2 -2,5 1,6 4,1 6,0 9,-2 1,-2 1,-3 -1,-4 -3,-1 -5,-2 -9,0l0 0z"/>
    <path class="fil0" d="M1044 137c-16,-13 -13,-37 9,-40l14 -8c-11,-1 -23,0 -36,1 -9,1 -18,2 -26,3 -5,1 -9,1 -15,2 -6,1 -11,-1 -16,-5 -5,-3 -10,-4 -16,-6 -13,-3 -26,-6 -40,-11 -9,-4 -18,-6 -28,-5 -6,0 -11,0 -16,0 -3,0 -6,1 -9,2 -7,3 -12,4 -16,3 -2,-1 -2,2 -1,3 5,1 10,1 15,-1 3,-1 6,-1 11,-2 5,0 8,0 10,4 1,4 -1,5 -4,7 -4,1 -7,3 -9,6 -2,2 1,4 3,3 4,-3 7,-5 11,-6 6,-1 9,-1 10,-8 2,-1 6,-1 9,1 6,4 13,9 19,14 14,10 28,18 44,20 16,3 33,4 50,4 -1,-9 1,-18 7,-23 3,-3 4,-3 2,1 -2,5 -4,11 -4,17l-2 29c0,4 -1,7 -3,1 -3,-6 -4,-12 -6,-18 -1,-4 -2,-4 -2,-1 -1,5 0,8 1,12 2,7 3,14 4,20 10,-5 20,-11 30,-19l0 0z"/>
    <path class="fil0" d="M1044 126c2,-9 5,-17 11,-24 -6,0 -12,1 -15,8 -3,9 1,13 4,16l0 0z"/>
    <path class="fil0" d="M1110 13c0,1 0,2 -1,3 -2,1 -1,2 0,2 1,2 3,2 5,1 1,0 2,-1 2,-3 0,-2 1,-3 -2,-4 -2,0 -4,-1 -4,1l0 0z"/>
    <path class="fil0" d="M1104 11c1,0 2,0 3,0 0,-3 2,-4 6,-4 1,0 2,0 1,-2 -1,-2 -2,-2 -4,-2 -1,1 -2,1 -3,0 -2,0 -2,-1 -3,-2 -1,-1 -4,-1 -5,0 -1,2 -1,4 1,5 3,1 4,2 4,5l0 0z"/>
    <path class="fil0" d="M1096 15c-1,0 -2,0 -3,0 -1,0 -1,2 0,3 1,1 2,0 3,2 0,1 3,1 5,1 1,-1 1,-2 2,-3 0,-2 -1,-3 -3,-3 -1,-1 -3,-1 -4,0l0 0z"/>
    <path class="fil0" d="M1091 9c1,3 2,3 3,3 2,-2 2,-6 1,-8 0,-1 -3,-2 -5,-3 -1,0 -2,0 -2,0 -2,1 -1,2 0,3 3,2 3,3 3,5l0 0z"/>
    <path class="fil0" d="M1078 18c1,1 1,2 2,3 3,-1 6,-1 10,-1 0,-2 -1,-4 -3,-5 -4,-1 -7,0 -9,3l0 0z"/>
    <path class="fil0" d="M1081 11c1,-2 1,-4 2,-5 1,-2 -1,-2 -2,-2l-4 0c0,1 -1,2 -2,2 0,0 -1,-1 0,-2 0,-1 -1,-2 -2,-2 -1,0 -2,0 -3,1 -1,2 -2,2 -3,2 -1,0 -1,2 -1,3 0,1 1,2 1,3 1,1 2,1 3,1 6,-1 10,0 11,-1l0 0z"/>
    <path class="fil0" d="M1068 16c0,2 1,5 5,5 1,2 2,2 3,0 1,-2 1,-3 -1,-5 -1,-1 -2,0 -3,0 -1,0 -3,0 -4,0l0 0z"/>
    <path class="fil0" d="M1058 13c1,1 2,1 5,0 1,-1 1,-2 0,-3 -2,-1 -3,-3 -4,-5 -1,-2 -3,-1 -4,-1 -2,1 -2,2 -1,3 2,3 4,4 4,6l0 0z"/>
    <path class="fil0" d="M1045 17c2,2 4,2 5,1 2,-1 2,-2 2,-6 0,-2 -2,-4 -4,-4 -6,-2 -10,-5 -14,-8 0,3 -1,6 -3,9 0,1 0,1 1,2 2,1 3,1 5,1 1,0 2,1 2,2 0,0 1,1 2,1 1,0 2,1 4,2l0 0z"/>
    <path class="fil0" d="M1045 27l3 -3 -12 -8c-2,-1 -3,-1 -3,0 -1,1 -1,2 0,3l12 8z"/>
    <path class="fil0" d="M1060 17c-2,1 -3,2 -4,4 -1,1 0,2 2,2 1,1 2,2 4,1 2,0 3,-2 3,-3 0,-2 -1,-2 -2,-3 -1,-1 -2,-1 -3,-1l0 0z"/>
    <path class="fil0" d="M875 79c-2,-3 -8,-1 -12,-1 -4,1 -10,2 -15,1 -3,0 -2,1 -2,2 1,1 4,2 7,1 5,-1 10,-1 13,-1 -4,3 -9,4 -14,4 -4,0 -3,3 0,3 3,0 6,-1 9,-2 3,-2 6,-2 3,0l-6 4c-2,2 0,3 3,2 4,-2 7,-6 11,-9 2,-1 4,-2 3,-4l0 0z"/>
    <path class="fil0" d="M1153 696c8,0 13,-4 15,-11 2,-10 8,-11 15,-9 1,-3 0,-6 -3,-7 -3,-1 -7,0 -10,1 -2,1 -3,1 -5,-1 -2,-4 -5,-4 -9,-4 -2,1 -4,2 -5,4 -1,4 -2,4 -5,1 -3,-2 -7,-1 -11,4 3,1 5,7 3,12 -3,5 -13,8 -18,2 -5,-7 0,-15 6,-15 -1,-4 -3,-6 -7,-7 -2,-1 -4,1 -5,2 -2,2 -4,3 -5,1 -3,-7 -7,-11 -16,-11 -8,0 -12,4 -15,11 -2,2 -3,1 -5,-1 -1,-1 -3,-3 -5,-2 -4,1 -6,3 -7,7 6,0 11,8 5,15 -4,6 -14,3 -17,-2 -2,-5 -1,-11 3,-12 -4,-5 -8,-6 -11,-4 -3,3 -4,3 -6,-1 0,-2 -2,-3 -4,-4 -4,0 -7,0 -9,4 -2,2 -3,2 -5,1 -3,-1 -7,-2 -10,-1 -3,1 -4,4 -3,7 7,-2 13,-1 15,9 2,7 7,11 15,11l119 0z"/>
    <path class="fil0" d="M1126 661c2,-3 3,-5 4,-8 2,-2 3,-5 5,-7 1,-2 2,-3 3,-5 2,-1 3,-3 4,-4 2,-1 3,-3 5,-4 1,-1 3,-2 4,-3 2,-1 3,-2 5,-3l3 -2 4 -1 4 -1 4 0c1,-1 3,-1 5,-1 2,0 3,0 5,0 1,1 3,1 4,1 2,0 3,1 4,1 2,1 3,1 4,2 1,0 2,1 3,2 1,1 2,1 3,2 1,1 1,2 2,3 1,1 1,3 1,4 1,1 1,2 1,3l1 3c0,1 0,3 0,4l-1 3 0 3 -2 2 -1 3c-1,1 -1,2 -2,3 -1,0 -2,1 -3,2 -1,1 -2,1 -3,2 -2,0 -3,1 -4,1 -1,1 -2,1 -4,1l-2 0c-1,0 -3,0 -4,0 -1,-1 -2,-1 -3,-2 -1,0 -2,0 -3,-1 -1,-1 -2,-2 -3,-3 -11,-10 -5,-26 11,-26 6,0 11,5 11,11 0,6 -5,10 -11,10 -4,0 -8,-2 -10,-5l0 1c1,2 2,4 3,5 1,1 2,2 3,3l1 0c1,1 3,1 4,1 1,0 2,0 3,0 1,0 2,0 2,0 2,-1 3,-1 5,-2 1,-1 2,-2 3,-2 0,-1 1,-2 1,-3 1,0 1,-1 2,-2 0,-1 0,-2 1,-3 0,-1 0,-2 0,-3 0,-1 0,-3 0,-4 0,-1 0,-1 -1,-2 0,-2 -1,-3 -1,-4 -1,-1 -2,-2 -2,-2 -1,-2 -2,-2 -4,-3 -1,-1 -2,-1 -4,-2 -1,0 -3,-1 -4,-1 -2,0 -3,0 -4,0 -3,0 -5,0 -7,0 -1,1 -3,1 -5,1 -1,1 -3,1 -4,2 -2,0 -3,1 -5,2 -1,1 -3,1 -4,2 -1,1 -3,2 -4,4 -1,1 -2,2 -4,3 -1,2 -2,3 -3,4 -2,2 -3,4 -5,7 -1,1 -2,3 -3,5 -1,2 -1,3 -2,5l-6 -2z"/>
    <path class="fil0" d="M1138 665l20 -7c-3,-8 -2,-14 2,-19 -10,4 -17,13 -22,26l0 0z"/>
    <path class="fil0" d="M1147 626l-20 0c3,3 4,8 5,12 5,-5 10,-10 15,-12l0 0z"/>
    <path class="fil0" d="M1088 617c1,-5 2,-7 5,-10 3,3 5,5 6,10 4,-2 7,-2 11,0 -1,3 -2,6 -6,9 4,2 5,5 6,9 -4,1 -7,2 -11,0 -1,4 -3,7 -6,10 -3,-3 -4,-5 -5,-10 -4,2 -7,1 -11,0 1,-4 2,-7 6,-9 -4,-3 -5,-6 -6,-10 4,-1 7,-1 11,1l0 0z"/>
    <path class="fil0" d="M1202 607l-100 0c0,1 1,2 1,2 5,0 9,2 13,4 0,2 0,5 -1,7l87 0 0 -13z"/>
    <path class="fil0" d="M1096 652c7,0 12,4 16,10 3,-2 5,-2 8,-2l7 -16c2,-7 -4,-18 -12,-19 0,0 -1,0 -2,0 0,0 0,0 0,1 2,4 3,8 4,13 -5,2 -9,4 -14,3 -2,4 -5,7 -8,9 0,1 1,1 1,1z"/>
    <path class="fil0" d="M1060 661c-1,-3 -2,-5 -4,-8 -1,-2 -2,-5 -4,-7 -1,-2 -2,-3 -4,-5 -1,-1 -2,-3 -4,-4 -1,-1 -2,-3 -4,-4 -1,-1 -3,-2 -4,-3 -2,-1 -4,-2 -5,-3l-4 -2 -3 -1 -4 -1 -4 0c-2,-1 -3,-1 -5,-1 -2,0 -3,0 -5,0 -1,1 -3,1 -4,1 -2,0 -3,1 -4,1 -2,1 -3,1 -4,2 -1,0 -2,1 -3,2 -1,1 -2,1 -3,2 -1,1 -1,2 -2,3 -1,1 -1,3 -2,4 0,1 0,2 -1,3l0 3c0,1 0,3 0,4l1 3 0 3 1 2 2 3c1,1 1,2 2,3 1,0 2,1 3,2 1,1 2,1 3,2 2,0 3,1 4,1 1,1 2,1 4,1l2 0c1,0 3,0 4,0 1,-1 2,-1 3,-2 1,0 2,0 3,-1 1,-1 2,-2 3,-3 11,-10 5,-26 -11,-26 -6,0 -11,5 -11,11 0,6 5,10 11,10 4,0 8,-2 9,-5l0 1c0,2 -1,4 -2,5 -1,1 -2,2 -3,3l-1 0c-1,1 -3,1 -4,1 -1,0 -2,0 -3,0 -1,0 -2,0 -3,0 -1,-1 -2,-1 -4,-2 -1,-1 -2,-2 -3,-2 0,-1 -1,-2 -1,-3 -1,0 -1,-1 -2,-2 0,-1 -1,-2 -1,-3 0,-1 0,-2 0,-3 0,-1 0,-3 0,-4 0,-1 0,-1 1,-2 0,-2 1,-3 1,-4 1,-1 1,-2 2,-2 1,-2 2,-2 4,-3 1,-1 2,-1 4,-2 1,0 3,-1 4,-1 2,0 3,0 4,0 2,0 4,0 7,0 1,1 3,1 5,1 1,1 3,1 4,2 2,0 3,1 5,2 1,1 3,1 4,2 1,1 3,2 4,4 1,1 2,2 4,3 1,2 2,3 3,4 2,2 3,4 4,7 2,1 3,3 3,5 1,2 2,3 3,5l5 -2z"/>
    <path class="fil0" d="M1049 665l-20 -7c3,-8 2,-14 -2,-19 10,4 17,13 22,26l0 0z"/>
    <path class="fil0" d="M1039 626l21 0c-3,3 -4,8 -6,12 -4,-5 -10,-10 -15,-12l0 0z"/>
    <path class="fil0" d="M985 607l100 0c0,1 -1,2 -1,2 -5,0 -9,2 -14,4 1,2 1,5 2,7l-87 0 0 -13z"/>
    <path class="fil0" d="M1091 652c-7,0 -12,4 -16,10 -3,-2 -6,-2 -9,-2l-6 -16c-2,-7 4,-18 12,-19 0,0 1,0 2,0 0,0 0,0 0,1 -3,4 -3,8 -4,13 5,2 9,4 14,3 2,4 5,7 8,9 0,1 -1,1 -1,1l0 0z"/>
   </g>
   <path class="fil1" d="M1938 683c5,0 9,-2 12,-6 3,-3 4,-8 4,-14 0,-6 -1,-10 -4,-13 -2,-4 -7,-5 -12,-5 -3,0 -6,0 -9,2 -3,1 -5,3 -7,6 -2,2 -2,5 -2,7 0,7 1,12 5,16 3,5 7,7 13,7zm-34 -30c0,-38 15,-57 46,-57 5,0 9,0 12,1l0 13c-3,-1 -7,-1 -11,-1 -11,0 -18,2 -24,8 -5,6 -8,15 -8,27l1 0c2,-4 5,-7 8,-9 4,-1 9,-2 14,-2 9,0 15,2 20,8 5,5 8,12 8,22 0,10 -3,18 -9,24 -6,6 -13,9 -23,9 -7,0 -13,-2 -18,-5 -5,-4 -9,-9 -12,-15 -3,-6 -4,-14 -4,-23zm-62 -7c0,13 1,22 4,28 2,6 7,8 13,8 6,0 10,-2 13,-8 3,-6 4,-15 4,-28 0,-13 -1,-23 -4,-29 -3,-5 -7,-8 -13,-8 -6,0 -11,3 -13,8 -3,6 -4,15 -4,29zm50 0c0,17 -3,29 -8,37 -6,8 -14,13 -25,13 -11,0 -19,-5 -25,-13 -5,-9 -8,-21 -8,-37 0,-17 3,-30 8,-38 5,-8 14,-12 25,-12 11,0 19,4 24,12 6,9 9,21 9,38zm-78 48l-65 0 0 -12 25 -25c7,-7 12,-13 14,-16 3,-3 4,-6 6,-9 1,-3 1,-6 1,-9 0,-4 -1,-8 -4,-10 -2,-3 -6,-4 -11,-4 -3,0 -7,1 -10,2 -4,2 -8,4 -13,8l-8 -11c5,-4 11,-7 16,-9 5,-2 10,-3 16,-3 9,0 16,2 22,7 5,5 8,11 8,19 0,4 -1,8 -2,12 -2,4 -4,8 -8,13 -3,4 -8,9 -16,16l-17 17 0 0 46 0 0 14zm-127 -48c0,13 1,22 4,28 2,6 7,8 13,8 6,0 10,-2 13,-8 3,-6 4,-15 4,-28 0,-13 -1,-23 -4,-29 -3,-5 -7,-8 -13,-8 -6,0 -11,3 -13,8 -3,6 -4,15 -4,29zm50 0c0,17 -3,29 -8,37 -6,8 -14,13 -25,13 -11,0 -19,-5 -25,-13 -5,-9 -8,-21 -8,-37 0,-17 3,-30 8,-38 5,-8 14,-12 25,-12 11,0 19,4 24,12 6,9 9,21 9,38zm-81 -26c0,6 -2,11 -6,15 -3,4 -8,7 -15,8l0 1c8,1 14,3 18,7 4,4 5,9 5,15 0,10 -3,17 -9,22 -7,5 -16,8 -29,8 -10,0 -19,-2 -27,-6l0 -14c4,2 9,4 13,5 5,1 9,2 14,2 7,0 13,-2 16,-4 4,-3 6,-8 6,-13 0,-6 -2,-9 -6,-12 -4,-2 -11,-3 -20,-3l-8 0 0 -13 9 0c15,0 23,-5 23,-16 0,-4 -2,-7 -4,-10 -3,-2 -7,-3 -12,-3 -4,0 -7,0 -11,1 -3,2 -7,4 -12,7l-7 -11c8,-7 19,-10 30,-10 10,0 18,2 23,6 6,4 9,10 9,18z"/>
   <path class="fil1" d="M2217 510l-9 -27c0,-1 -1,-4 -2,-8 -2,-4 -2,-6 -3,-8 -1,5 -3,11 -5,18l-9 25 28 0zm14 40l-9 -26 -38 0 -9 26 -17 0 37 -97 17 0 36 97 -17 0zm-101 0l0 -96 15 0 0 96 -15 0zm-71 -38l0 38 -16 0 0 -96 27 0c13,0 22,2 28,7 6,4 9,11 9,21 0,12 -6,20 -19,26l28 42 -18 0 -24 -38 -15 0zm0 -13l11 0c7,0 12,-2 16,-5 3,-2 5,-6 5,-12 0,-5 -2,-9 -6,-11 -3,-3 -9,-4 -16,-4l-10 0 0 32zm-60 11l-9 -27c0,-1 -1,-4 -2,-8 -2,-4 -2,-6 -3,-8 -1,5 -3,11 -5,18l-9 25 28 0zm14 40l-9 -26 -38 0 -9 26 -17 0 37 -97 17 0 36 97 -17 0zm-119 -52l36 0 0 49c-6,1 -12,3 -17,4 -5,0 -11,1 -17,1 -15,0 -26,-5 -34,-13 -8,-9 -12,-21 -12,-37 0,-16 4,-28 13,-37 9,-8 22,-13 37,-13 10,0 20,2 29,6l-6 13c-7,-3 -15,-5 -23,-5 -10,0 -19,3 -25,9 -6,7 -9,16 -9,27 0,12 3,21 8,27 6,6 14,9 24,9 5,0 10,0 16,-2l0 -25 -20 0 0 -13zm-110 52l0 -96 16 0 0 83 41 0 0 13 -57 0zm-25 -96l0 62c0,7 -2,14 -5,19 -3,5 -7,10 -13,12 -6,3 -13,5 -21,5 -12,0 -21,-3 -28,-10 -7,-6 -10,-15 -10,-26l0 -62 16 0 0 61c0,8 2,14 6,18 3,3 9,5 17,5 15,0 22,-8 22,-23l0 -61 16 0zm-150 52l0 31 17 0c7,0 12,-1 15,-4 3,-2 5,-6 5,-12 0,-5 -2,-8 -5,-11 -4,-2 -9,-4 -16,-4l-16 0zm0 -12l15 0c7,0 12,-1 15,-4 3,-2 4,-5 4,-10 0,-5 -1,-8 -4,-10 -4,-2 -9,-3 -16,-3l-14 0 0 27zm-16 -40l29 0c13,0 23,1 29,5 6,4 9,10 9,19 0,5 -2,10 -4,14 -3,4 -8,6 -13,7l0 1c7,1 12,3 15,7 3,4 5,9 5,16 0,8 -3,15 -9,20 -6,5 -15,7 -26,7l-35 0 0 -96z"/>
   <path class="fil1" d="M1609 355l11 0c8,0 13,-2 16,-4 3,-3 5,-7 5,-12 0,-6 -2,-10 -5,-12 -4,-3 -9,-4 -16,-4l-11 0 0 32zm0 13l0 39 -16 0 0 -97 28 0c12,0 21,2 27,7 6,4 9,12 9,21 0,12 -6,21 -18,26l27 43 -18 0 -23 -39 -16 0zm147 -58l0 63c0,7 -2,13 -5,18 -3,6 -7,10 -13,13 -6,3 -13,4 -21,4 -12,0 -21,-3 -28,-9 -6,-7 -10,-16 -10,-27l0 -62 16 0 0 61c0,8 2,14 6,18 3,4 9,5 17,5 15,0 22,-7 22,-23l0 -61 16 0zm81 70c0,9 -3,16 -10,21 -6,5 -14,7 -25,7 -11,0 -20,-2 -27,-5l0 -15c4,2 9,4 14,5 5,1 9,2 14,2 6,0 11,-2 14,-4 3,-2 4,-6 4,-10 0,-3 -1,-6 -4,-9 -3,-2 -8,-5 -17,-9 -9,-3 -15,-7 -19,-12 -3,-5 -5,-10 -5,-17 0,-8 3,-14 8,-19 6,-4 14,-7 24,-7 9,0 18,2 27,7l-5 12c-8,-3 -16,-5 -23,-5 -5,0 -9,1 -12,3 -2,3 -4,6 -4,9 0,3 1,5 2,7 1,1 3,3 5,5 3,1 7,3 13,6 8,3 13,6 16,8 3,3 6,6 7,9 2,3 3,7 3,11zm146 27l-55 0 0 -97 55 0 0 13 -39 0 0 27 36 0 0 13 -36 0 0 30 39 0 0 14zm-71 -27c0,9 -3,16 -9,21 -6,5 -15,7 -26,7 -11,0 -20,-2 -27,-5l0 -15c5,2 9,4 14,5 5,1 10,2 14,2 7,0 11,-2 14,-4 3,-2 5,-6 5,-10 0,-3 -2,-6 -4,-9 -3,-2 -9,-5 -17,-9 -9,-3 -15,-7 -19,-12 -4,-5 -6,-10 -6,-17 0,-8 3,-14 9,-19 6,-4 14,-7 23,-7 9,0 19,2 28,7l-5 12c-9,-3 -16,-5 -23,-5 -5,0 -9,1 -12,3 -3,3 -4,6 -4,9 0,3 1,5 2,7 1,1 3,3 5,5 2,1 7,3 13,6 7,3 12,6 16,8 3,3 6,6 7,9 2,3 2,7 2,11z"/>
   <path class="fil1" d="M2417 219l0 31 17 0c7,0 12,-2 15,-4 4,-3 5,-7 5,-12 0,-5 -1,-9 -5,-11 -3,-3 -9,-4 -16,-4l-16 0zm0 -13l16 0c6,0 11,-1 14,-3 3,-2 5,-6 5,-11 0,-4 -2,-8 -5,-10 -4,-2 -9,-3 -16,-3l-14 0 0 27zm-16 -40l29 0c14,0 23,2 29,6 6,4 9,10 9,18 0,6 -1,11 -4,14 -3,4 -7,7 -13,8l0 0c7,2 12,4 15,8 3,4 5,9 5,15 0,9 -3,16 -9,21 -6,5 -15,7 -26,7l-35 0 0 -97zm-24 0l0 63c0,7 -2,13 -5,19 -3,5 -7,9 -13,12 -6,3 -13,4 -21,4 -12,0 -21,-3 -28,-9 -7,-7 -10,-15 -10,-26l0 -63 16 0 0 61c0,8 2,14 5,18 4,4 10,6 17,6 15,0 23,-8 23,-24l0 -61 16 0zm-149 97l0 -97 16 0 0 83 41 0 0 14 -57 0zm-44 -85c-9,0 -17,4 -22,10 -5,6 -8,15 -8,27 0,12 3,21 8,27 5,6 12,9 22,9 4,0 8,-1 12,-1 3,-1 7,-2 12,-4l0 14c-8,3 -17,4 -26,4 -14,0 -25,-4 -33,-13 -8,-8 -11,-20 -11,-36 0,-11 1,-19 5,-27 4,-7 9,-13 16,-17 7,-4 15,-6 25,-6 10,0 19,2 27,6l-5 13c-4,-1 -7,-3 -11,-4 -3,-1 -7,-2 -11,-2zm-130 32l23 -44 17 0 -32 59 0 38 -16 0 0 -37 -32 -60 17 0 23 44zm-98 14l0 39 -16 0 0 -97 27 0c13,0 22,2 28,7 6,5 9,12 9,21 0,12 -6,21 -19,26l28 43 -18 0 -24 -39 -15 0zm0 -13l11 0c7,0 13,-1 16,-4 3,-3 5,-7 5,-12 0,-6 -2,-10 -6,-12 -3,-2 -8,-4 -16,-4l-10 0 0 32zm-59 11l-10 -26c0,-2 -1,-5 -2,-8 -2,-4 -2,-7 -3,-9 -1,6 -3,12 -5,18l-9 25 29 0zm13 41l-9 -27 -37 0 -10 27 -17 0 37 -97 17 0 36 97 -17 0zm-94 0l-15 0 0 -83 -29 0 0 -14 73 0 0 14 -29 0 0 83zm-124 -49c0,12 3,21 7,28 5,6 12,9 22,9 9,0 16,-3 21,-9 5,-6 7,-16 7,-28 0,-11 -2,-21 -7,-27 -5,-6 -12,-9 -21,-9 -10,0 -17,3 -22,9 -4,6 -7,16 -7,27zm74 0c0,16 -4,28 -12,37 -8,9 -19,13 -33,13 -15,0 -26,-4 -34,-13 -8,-8 -12,-21 -12,-37 0,-16 4,-28 12,-37 8,-8 19,-12 34,-12 14,0 25,4 33,13 8,8 12,21 12,36zm-157 10l0 39 -16 0 0 -97 28 0c12,0 21,2 27,7 6,5 9,12 9,21 0,12 -6,21 -18,26l27 43 -18 0 -23 -39 -16 0zm0 -13l11 0c7,0 13,-1 16,-4 3,-3 5,-7 5,-12 0,-6 -2,-10 -5,-12 -4,-2 -9,-4 -16,-4l-11 0 0 32z"/>
   <rect class="fil2" x="1407" y="166" width="11.8167" height="529.48"/>
   <g>
    <path class="fil3" d="M240 135l1 3 5 8 10 -5c1,-1 2,-2 2,-3 0,-5 -3,-11 -8,-8 -4,2 -6,3 -10,5zm-11 3l-3 -5c8,-5 15,-8 22,-12 9,-5 21,6 20,17 0,2 -1,3 -2,5l18 13c-3,1 -6,2 -10,4l-15 -11 -9 5 9 14c-3,3 -5,4 -9,6l-21 -36zm232 480l16 46c3,-1 6,-2 9,-4l-15 -45c-4,1 -6,2 -10,3zm-64 43l-4 -9 -4 -10 -3 10 -3 10 14 -1zm6 -9l11 25c-4,1 -7,1 -10,1l-3 -8 -21 1 -2 8c-4,0 -7,0 -10,0l9 -27 6 -20 1 -1 10 0 1 1 8 20zm53 -533l10 4c3,1 7,-4 7,-8 0,-2 0,-3 -3,-4 -4,-2 -7,-2 -11,-3l-2 7 -1 4zm-7 26c-4,-1 -7,-2 -11,-3l8 -27 6 -19c8,2 16,5 24,7 4,2 6,7 7,12 0,7 -3,15 -11,17l3 22c-3,-2 -6,-3 -10,-4l-2 -19 -9 -3 -5 17zm-147 484c0,-1 0,-2 -2,-3l-12 -4 -3 7 -1 3 0 0 11 4c3,2 6,-1 7,-4 0,-1 1,-2 0,-3zm10 0c0,1 0,2 0,3 -1,6 -6,13 -13,14l2 22c-3,-1 -7,-2 -11,-3l0 -21 -9 -5 -8 19c-3,-1 -6,-2 -9,-3l9 -23 2 -3 8 -19 21 9c5,1 7,6 8,10zm137 -7c-14,3 -24,6 -38,8l1 8c5,-1 10,-1 15,-2l7 39 11 -2 -9 -39c5,-1 10,-2 16,-4l-3 -8zm53 -455l10 -20 29 -13c-3,-2 -7,-4 -10,-6l-19 9 -3 -21c-5,-2 -7,-3 -11,-4l5 30 -10 20 9 5zm106 12c-5,-5 -12,-4 -14,-1l-33 33c-5,5 -4,13 1,16 49,55 70,123 53,207 0,6 4,10 8,11l45 14c6,1 10,-2 11,-7 24,-104 -8,-206 -71,-273zm52 304l-45 -16c-3,-1 -9,-1 -12,7 -37,88 -122,148 -221,148 -98,0 -185,-61 -220,-149 -3,-7 -9,-7 -12,-6l-45 16c-4,2 -7,6 -5,12 44,113 154,193 282,193 128,0 239,-80 283,-193 3,-6 0,-10 -5,-12zm-562 -24l45 -14c4,-1 8,-5 8,-11 -17,-84 4,-152 53,-207 5,-3 6,-11 1,-16l-33 -33c-3,-3 -9,-3 -14,2 -63,66 -95,168 -71,272 1,5 5,8 11,7zm453 -211c1,-2 -1,-4 -3,-7 -37,-38 -74,-60 -125,-72 -3,-1 -6,-1 -8,1 -2,1 -3,5 -3,10l9 118c0,5 2,8 5,10 3,2 7,1 11,-1l106 -51c4,-1 8,-3 8,-7 0,0 1,0 0,-1zm22 211c3,2 7,4 10,3 2,0 4,-3 6,-7 14,-51 14,-94 0,-144 -1,-3 -3,-6 -5,-7 -3,-1 -6,0 -11,3l-98 67c-3,2 -5,6 -5,9 0,4 2,7 5,10l98 66zm-158 137c1,1 4,2 9,1 50,-12 88,-34 124,-72 2,-2 4,-5 4,-8 -1,-3 -3,-5 -8,-7l-107 -52c-4,-2 -7,-2 -11,0 -3,2 -5,5 -5,10l-9 117c0,4 0,9 3,11zm-33 -136c42,0 76,-34 76,-76 0,-42 -34,-76 -76,-76 -42,0 -76,34 -76,76 0,42 34,76 76,76zm-167 59c0,2 2,5 4,7 37,39 74,60 125,72 3,1 6,1 8,0 3,-2 3,-6 3,-11 0,0 -9,-118 -9,-118 0,-4 -2,-8 -5,-10 -3,-1 -7,-1 -11,0l-106 52c-4,2 -8,4 -9,7 0,0 0,1 0,1zm-1 -269c0,4 4,5 8,7l106 52c4,2 8,2 11,0 3,-2 5,-5 5,-10l9 -118c0,-5 0,-9 -2,-10 -3,-2 -6,-2 -9,-1 -51,12 -88,34 -125,72 -3,3 -4,6 -3,8zm-22 58c-3,-2 -7,-5 -10,-3 -2,0 -4,3 -5,7 -15,51 -15,94 0,144 1,3 2,6 5,7 2,1 6,0 10,-3l98 -67c3,-2 6,-6 6,-9 0,-4 -3,-7 -6,-10l-98 -66zm-2 -147l32 35c4,5 9,4 15,-1 40,-31 91,-50 145,-50 55,0 106,19 146,50 6,5 11,6 15,1l32 -35c3,-4 3,-9 -3,-15 -53,-41 -118,-67 -190,-67 -71,0 -137,26 -189,67 -6,6 -6,11 -3,15zm575 223l0 0 0 1 0 0c0,4 0,8 0,12l0 1 -1 0c-17,10 -38,15 -59,16 0,3 -3,22 -3,24 20,6 39,17 52,30l1 1 0 1c-1,8 -4,18 -7,24l0 1 -1 0c-19,6 -40,6 -61,1 -1,2 -8,20 -9,22 18,11 33,27 42,43l1 1 -1 1c-2,7 -7,16 -12,22l-1 0 -1 0c-19,1 -40,-5 -58,-15 -2,2 -14,18 -16,20 15,15 26,34 30,53l1 1 -1 0c-4,6 -12,14 -17,18l-1 1 -2 -1c-18,-4 -37,-15 -52,-30 -2,2 -17,14 -19,15 9,18 15,39 15,57 0,1 0,3 0,3l-1 0c-5,5 -15,10 -21,13l-1 0 -1 0c-16,-9 -32,-25 -43,-43 -2,1 -21,9 -23,10 2,10 4,21 4,31 0,10 -2,21 -4,30l0 1 -1 0c-7,3 -17,6 -24,7l-1 0 -1 -1c-14,-13 -25,-32 -31,-52 -2,0 -21,3 -24,3 0,21 -6,42 -16,59l0 0 -1 1c-7,1 -18,1 -25,0l-1 -1 -1 0c-9,-17 -15,-38 -15,-59 -3,0 -23,-3 -26,-3 -6,20 -16,39 -30,52l-1 1 -1 0c-8,-1 -17,-4 -24,-7l-1 0 0 -1c-3,-10 -4,-20 -4,-30 0,-11 1,-21 4,-31 -3,-1 -20,-8 -23,-9 -11,18 -26,34 -43,43l-1 1 -1 -1c-6,-3 -15,-8 -21,-12l-1 -1c0,0 0,-2 0,-2 0,-19 6,-39 16,-57 -3,-2 -19,-14 -21,-16 -15,14 -34,25 -52,30l-1 0 -1 -1c-6,-4 -13,-11 -18,-17l0 -1 0 -1c5,-19 16,-37 30,-52 -1,-2 -14,-18 -16,-21 -18,11 -39,16 -58,16l-1 0 0 -1c-5,-6 -10,-15 -13,-21l0 -1 0 -1c10,-17 25,-32 43,-43 -1,-3 -9,-20 -10,-23 -20,5 -42,5 -61,0l0 0 -1 -1c-2,-6 -5,-17 -6,-24l0 -1 0 -1c14,-14 32,-24 52,-30 0,-3 -3,-23 -3,-26 -21,-1 -42,-6 -59,-16l0 0 0 -1c-1,-4 -1,-8 -1,-13 0,-4 0,-9 1,-12l0 -1 0 -1c17,-9 38,-15 59,-15 0,-3 3,-23 3,-26 -20,-5 -39,-16 -52,-30l-1 0 1 -1c0,-8 3,-18 6,-24l0 -1 1 -1c19,-5 40,-5 61,0 1,-2 8,-20 9,-23 -18,-11 -33,-26 -43,-42l0 -1 0 -1c3,-7 9,-16 13,-22l0 -1 2 0c19,0 40,6 58,16 1,-2 14,-19 16,-21 -15,-15 -26,-34 -30,-52l-1 -1 1 -1c4,-6 12,-13 18,-18l0 0 1 0c19,5 38,16 53,30 2,-2 16,-13 19,-15 -10,-17 -16,-38 -16,-56 0,-1 0,-3 0,-3l1 -1c5,-4 15,-9 21,-12l1 -1 1 1c17,9 32,25 43,43 2,-1 21,-10 24,-11 -2,-10 -4,-20 -4,-30 0,-11 1,-21 4,-30l0 -1 1 0c7,-3 17,-6 24,-7l1 0 1 1c14,13 25,32 30,52 3,0 23,-3 26,-3 0,-21 6,-42 16,-58l0 -1 1 -1c4,0 8,0 12,0l2 0c4,0 8,0 11,0l1 1 1 1c10,16 15,37 15,58 3,0 23,3 26,3 6,-20 17,-39 30,-52l1 -1 1 0c7,1 17,4 24,7l1 0 0 1c3,9 4,19 4,30 0,10 -1,21 -4,30 3,1 22,9 24,11 11,-18 26,-34 43,-43l1 -1 1 1c6,3 15,8 21,12l1 1c0,0 0,2 0,3 0,18 -6,39 -16,56 2,2 18,14 20,16 15,-14 34,-25 53,-30l1 0 1 1c5,4 13,12 17,17l1 1 -1 1c-4,19 -16,38 -30,52 2,3 14,18 16,21 18,-10 39,-16 58,-16l1 0 0 1c5,6 10,15 13,21l1 2 -1 1c-9,16 -25,31 -43,42 1,3 9,21 10,23 20,-5 42,-5 60,0l1 0 0 1c3,7 6,17 7,24l0 1 -1 1c-13,14 -32,25 -52,30 0,3 3,23 3,25 21,1 42,6 59,16l1 1 0 1c0,3 0,7 0,11l0 1 0 0 0 0zm-214 181l20 21 -34 -10c-2,2 -4,3 -7,5l30 39c2,-1 5,-4 7,-6l-18 -23 34 10c2,-2 6,-4 8,-7l-34 -36c-2,2 -4,5 -6,7zm-23 57c0,-3 -1,-6 -2,-8 -4,-7 -14,-10 -21,-6 -5,3 -8,8 -8,14 0,2 1,5 2,8 1,0 1,1 2,2 5,5 13,7 19,3 2,-1 3,-2 4,-3 3,-3 4,-7 4,-10zm5 -12c2,4 3,8 4,12 0,3 -1,7 -3,10 -2,4 -5,8 -10,11 -11,6 -26,3 -32,-9 -1,-1 -1,-1 -1,-2 -2,-3 -2,-7 -3,-10 1,-9 5,-16 12,-21 12,-6 27,-2 33,9zm51 -64l5 9 6 9 7 -9 1 -2 -19 -7zm-6 -11l48 16c-1,1 -2,2 -3,4 -1,1 -2,2 -2,3l-9 -3 -13 17 5 7c-2,3 -4,5 -7,7l-19 -31 -7 -12 7 -8zm53 -7l-35 -20 -4 9 42 23 16 -29 -7 -4 -12 21zm-278 102l-4 29 -14 -32c-3,-1 -5,-2 -8,-2l-11 47c3,1 6,1 10,2l6 -29 14 32c3,1 7,2 11,2l5 -49c-3,0 -6,0 -9,0zm-2 -532l5 39 10 -1 -4 -39 15 -1 0 -8c-18,1 -25,1 -42,4l1 8 15 -2zm48 21c5,1 10,1 15,2l-2 -10 -4 -10 -5 10 -4 8zm-8 17c-4,0 -6,0 -10,0l12 -25 11 -23 11 2 5 21 8 29c-3,-1 -6,-1 -10,-2l-2 -9c-7,-1 -14,-1 -20,-1l-5 8zm-100 -12c1,8 9,15 17,14 8,-1 14,-7 14,-15 0,-1 0,-1 0,-2 -1,-8 -8,-15 -17,-14 -8,1 -14,7 -14,16 0,0 0,0 0,1zm-8 1c0,-1 0,-2 0,-2 -1,-13 9,-23 21,-24 13,-1 25,8 26,22 0,0 0,1 0,2 0,12 -9,22 -22,24 -13,1 -24,-9 -25,-22zm100 305c25,0 46,-21 46,-46 0,-21 -15,-39 -35,-44 0,-2 0,-11 0,-11l-23 0c0,0 -1,10 -1,12 -19,6 -32,23 -32,43 0,25 21,46 45,46zm-1 22c-37,0 -68,-31 -68,-68 0,-38 31,-69 68,-69 38,0 69,31 69,69 0,38 -31,68 -69,68zm-135 150c7,3 13,7 20,10l5 -7c-10,-5 -19,-11 -28,-16l-27 40c10,6 20,12 30,18l5 -7 -22 -13 7 -10 15 9 4 -7c-5,-3 -10,-6 -15,-9l6 -8zm-54 -60l-23 20 12 -34c-2,-2 -3,-4 -5,-7l-40 27c1,3 4,5 5,8l25 -17 -12 34c2,2 4,6 7,8l37 -32c-2,-2 -4,-4 -6,-7zm-27 -38l-41 24c1,3 3,6 5,9l41 -24c-2,-4 -3,-6 -5,-9zm51 75l-25 30 -8 -7 26 -29c-4,-4 -7,-7 -11,-11l6 -6c10,10 19,17 30,26l-5 6c-4,-3 -9,-6 -13,-9z"/>
    <path class="fil3" d="M691 657c6,0 12,1 17,4 5,3 10,7 13,13 3,5 4,11 4,17 0,6 -1,12 -4,17 -3,6 -7,10 -13,13 -5,3 -11,4 -17,4 -6,0 -12,-1 -17,-4 -5,-3 -10,-7 -13,-13 -3,-5 -4,-11 -4,-17 0,-6 1,-12 4,-17 4,-6 8,-10 13,-13 6,-3 11,-4 17,-4zm0 6c-5,0 -9,2 -13,4 -5,2 -8,6 -11,10 -2,5 -3,9 -3,14 0,5 1,9 3,14 3,4 6,8 10,10 5,3 9,4 14,4 5,0 10,-2 14,-4 4,-2 8,-6 10,-10 3,-5 4,-9 4,-14 0,-5 -1,-9 -4,-14 -2,-4 -6,-8 -10,-10 -5,-2 -9,-4 -14,-4zm-15 46l0 -36 7 0c7,0 11,0 12,0 2,0 4,1 5,2 2,0 3,1 4,3 1,2 1,3 1,5 0,3 -1,5 -2,7 -2,2 -5,3 -8,3 1,1 2,1 3,2 1,0 1,1 2,3 1,0 2,1 3,4l4 7 -9 0 -3 -6c-2,-3 -4,-6 -5,-7 -1,-1 -3,-2 -5,-2l-2 0 0 15 -7 0zm7 -20l3 0c4,0 7,0 8,-1 1,0 2,-1 2,-1 1,-1 1,-2 1,-3 0,-1 0,-2 -1,-3 0,-1 -1,-1 -2,-2 -1,0 -4,0 -8,0l-3 0 0 10z"/>
    <path class="fil3" d="M691 657c6,0 12,1 17,4 5,3 10,7 13,13 3,5 4,11 4,17 0,6 -1,12 -4,17 -3,6 -7,10 -13,13 -5,3 -11,4 -17,4 -6,0 -12,-1 -17,-4 -5,-3 -10,-7 -13,-13 -3,-5 -4,-11 -4,-17 0,-6 1,-12 4,-17 4,-6 8,-10 13,-13 6,-3 11,-4 17,-4zm0 6c-5,0 -9,2 -13,4 -5,2 -8,6 -11,10 -2,5 -3,9 -3,14 0,5 1,9 3,14 3,4 6,8 10,10 5,3 9,4 14,4 5,0 10,-2 14,-4 4,-2 8,-6 10,-10 3,-5 4,-9 4,-14 0,-5 -1,-9 -4,-14 -2,-4 -6,-8 -10,-10 -5,-2 -9,-4 -14,-4zm-15 46l0 -36 7 0c7,0 11,0 12,0 2,0 4,1 5,2 2,0 3,1 4,3 1,2 1,3 1,5 0,3 -1,5 -2,7 -2,2 -5,3 -8,3 1,1 2,1 3,2 1,0 1,1 2,3 1,0 2,1 3,4l4 7 -9 0 -3 -6c-2,-3 -4,-6 -5,-7 -1,-1 -3,-2 -5,-2l-2 0 0 15 -7 0zm7 -20l3 0c4,0 7,0 8,-1 1,0 2,-1 2,-1 1,-1 1,-2 1,-3 0,-1 0,-2 -1,-3 0,-1 -1,-1 -2,-2 -1,0 -4,0 -8,0l-3 0 0 10z"/>
   </g>
  </g>
 </g>
</svg>
