<?xml version="1.0" encoding="UTF-8"?>
<!DOCTYPE svg PUBLIC "-//W3C//DTD SVG 1.1//EN" "http://www.w3.org/Graphics/SVG/1.1/DTD/svg11.dtd">
<!-- Creator: CorelDRAW X7 -->
<svg xmlns="http://www.w3.org/2000/svg" xml:space="preserve" width="76.4213mm" height="30.2059mm" version="1.1" style="shape-rendering:geometricPrecision; text-rendering:geometricPrecision; image-rendering:optimizeQuality; fill-rule:evenodd; clip-rule:evenodd"
viewBox="0 0 7693 3041"
 xmlns:xlink="http://www.w3.org/1999/xlink">
 <defs>
  <style type="text/css">
   <![CDATA[
    .fil1 {fill:#888887}
    .fil0 {fill:#17A0DB;fill-rule:nonzero}
   ]]>
  </style>
 </defs>
 <g id="Layer_x0020_1">
  <metadata id="CorelCorpID_0Corel-Layer"/>
  <g id="_2282865634800">
   <path class="fil0" d="M1157 484c-1,-33 23,-58 55,-61 34,-3 64,21 67,55 0,2 1,4 0,6 0,32 -24,58 -57,61 -32,3 -62,-22 -65,-56l0 -5zm67 95c51,-4 88,-46 88,-95l0 -8c-4,-53 -51,-91 -103,-86 -50,4 -88,44 -87,94l0 8c5,54 51,92 102,87z"/>
   <polygon class="fil0" points="2508,2093 2368,2016 2350,2049 2518,2142 2582,2026 2554,2011 "/>
   <path class="fil0" d="M2397 2192l-7 9 -28 36 -21 -36 -23 -36 79 27zm-128 -37l28 46 76 125c9,-10 18,-19 26,-28l-19 -30 52 -65 33 12c3,-6 7,-10 10,-14 4,-6 8,-11 12,-17l-190 -62 -28 33z"/>
   <path class="fil0" d="M983 2387c26,14 51,29 79,42l17 -28c-39,-20 -76,-44 -109,-67l-108 160c41,27 79,49 121,74l17 -28 -87 -52 29 -41 58 35 17 -28c-18,-10 -38,-22 -58,-34l24 -33z"/>
   <path class="fil0" d="M992 513c19,-12 33,13 32,31 -1,6 -3,10 -7,12l-40 21 -19 -33 -6 -9c16,-9 25,-15 40,-22zm0 176c16,-9 24,-14 38,-23l-35 -60 33 -18 61 45c16,-7 26,-12 39,-18l-70 -51c4,-6 6,-13 7,-20 3,-41 -45,-86 -79,-68 -28,16 -58,31 -86,49l10 19 82 145z"/>
   <path class="fil0" d="M1814 454l9 -30c18,5 28,7 44,14 10,2 13,9 13,16 0,16 -15,35 -27,31l-43 -14 4 -17zm-12 51l36 11 10 75c15,6 25,10 39,15l-11 -85c29,-7 43,-38 42,-67 -2,-21 -11,-41 -29,-46 -31,-11 -62,-21 -95,-29l-23 75 -31 106c17,5 28,7 44,11l18 -66z"/>
   <path class="fil0" d="M1994 660l42 -80 111 -52c-11,-8 -24,-14 -36,-22l-77 35 -14 -83c-16,-8 -26,-11 -43,-18l23 121 -42 79 36 20z"/>
   <path class="fil0" d="M1396 386l16 156 41 -4 -16 -155 62 -4 -2 -34c-69,4 -98,6 -166,17l4 33 61 -9z"/>
   <path class="fil0" d="M1602 438l20 -41 13 41 10 39c-20,-2 -39,-5 -60,-6l17 -33zm-31 66c26,1 52,2 80,6l11 36c14,1 25,3 39,6l-31 -114 -22 -86 -43 -4 -43 90 -47 98c15,0 23,0 39,0l17 -32z"/>
   <path class="fil0" d="M912 2334l21 -26c-44,-35 -80,-65 -120,-102l-23 23c16,14 29,28 46,44l-105 117 31 27 102 -120c16,12 32,24 48,37z"/>
   <path class="fil0" d="M1200 2507c-4,12 -16,22 -28,17l-44 -17 1 0 4 -11 10 -31 48 18c7,3 9,7 10,13 2,4 0,8 -1,11zm8 -53l-86 -33 -31 75 -5 11 -39 90c12,6 25,10 37,14l31 -74 37 16 2 84c14,6 28,10 42,13l-7 -89c28,-3 45,-29 48,-55l0 -10c-1,-18 -10,-35 -29,-42z"/>
   <path class="fil0" d="M660 1997l-164 96c6,12 12,25 19,37l165 -97c-8,-14 -12,-22 -20,-36z"/>
   <path class="fil0" d="M1402 2498l-14 116 -56 -128c-13,-2 -21,-6 -34,-8l-44 189c13,3 26,5 40,7l24 -116 57 129c12,2 27,6 42,6l21 -195c-11,0 -24,2 -36,0z"/>
   <path class="fil0" d="M2698 1790c-5,21 -20,35 -44,28l-180 -52c-17,-5 -31,-22 -30,-44 65,-335 -17,-606 -214,-823 -19,-14 -21,-43 -2,-63l130 -131c8,-15 38,-18 55,4 251,263 378,669 285,1081zm-55 172c-177,448 -616,767 -1124,767 -508,0 -945,-317 -1121,-765 -10,-25 1,-43 21,-50l179 -61c9,-3 35,-3 45,23 139,348 484,592 876,592 392,0 730,-238 875,-587 13,-31 38,-31 47,-28l180 61c20,7 31,24 22,48zm-2298 -171c-93,-413 34,-817 284,-1081 19,-20 42,-20 55,-5l131 131c19,20 17,49 -3,63 -196,217 -278,488 -214,823 2,22 -12,39 -29,44l-180 52c-23,7 -39,-7 -44,-27zm1846 -805c-3,15 -19,22 -32,28l-422 204c-16,8 -32,9 -45,2 -12,-7 -20,-21 -21,-39l-33 -469c-2,-21 1,-35 10,-42 9,-8 22,-5 33,-2 203,48 350,133 494,285 11,11 16,21 16,29 0,2 0,3 0,4zm-303 570c-15,-10 -22,-24 -22,-38 0,-14 7,-28 22,-38l387 -263c19,-13 32,-17 43,-13 10,4 16,17 20,30 59,198 59,369 0,569 -5,18 -13,27 -22,30 -13,5 -28,-5 -40,-13l-388 -264zm-250 766l34 -467c2,-19 9,-32 21,-40 13,-7 29,-7 45,1l422 205c19,9 29,19 31,30 3,11 -6,21 -15,31 -144,151 -291,237 -493,285 -18,4 -29,3 -36,-3 -11,-9 -9,-27 -9,-42zm-421 -801c0,-166 135,-302 302,-302 167,0 302,136 302,302 0,167 -135,302 -302,302 -167,0 -302,-135 -302,-302zm-361 534c2,-14 18,-22 33,-29l420 -204c17,-8 33,-8 45,-1 13,7 20,21 21,39 0,0 34,467 34,468 2,22 -1,36 -10,43 -9,7 -21,5 -34,1 -202,-47 -349,-132 -494,-285 -10,-10 -16,-20 -16,-28 0,-2 1,-3 1,-4zm8 -1098c145,-152 292,-237 494,-286 12,-2 26,-4 35,4 8,6 11,20 9,42l-34 468c-1,18 -9,31 -21,39 -12,6 -28,6 -45,-2l-421 -204c-14,-7 -30,-14 -32,-28 -2,-9 3,-20 15,-33zm287 527c15,10 23,23 23,38 0,14 -8,27 -23,37l-386 263c-19,13 -33,17 -43,13 -11,-3 -16,-16 -20,-29 -58,-198 -58,-369 0,-570 5,-16 12,-26 22,-29 12,-6 27,4 41,13l386 264zm-383 -907c206,-164 468,-265 750,-265 285,0 543,101 753,264 27,23 27,44 13,59l-125 139c-19,19 -37,16 -62,-3 -159,-124 -362,-197 -578,-197 -216,0 -418,73 -576,197 -25,20 -45,22 -62,3l-125 -139c-14,-15 -15,-36 12,-58zm2270 896l-1 -4 -4 -2c-65,-39 -148,-61 -231,-63 -2,-11 -12,-88 -14,-99 80,-23 155,-65 208,-120l3 -3 -1 -4c-3,-30 -15,-71 -25,-96l-2 -4 -4 -1c-72,-20 -159,-20 -238,0 -6,-10 -35,-80 -39,-91 71,-43 132,-104 170,-169l2 -4 -2 -4c-11,-25 -31,-62 -50,-85l-2 -3 -4 0c-75,-2 -158,21 -232,61 -7,-9 -54,-72 -61,-81 57,-58 101,-133 120,-207l2 -4 -4 -3c-17,-23 -47,-54 -69,-71l-3 -3 -3 2c-74,18 -149,62 -209,119 -9,-7 -72,-56 -80,-63 39,-69 62,-151 62,-226l0 -10 -3 -2c-23,-18 -59,-39 -85,-50l-4 -1 -4 1c-66,38 -126,99 -168,169 -11,-4 -87,-36 -97,-40 10,-39 16,-80 17,-121 0,-41 -6,-81 -17,-118l-1 -4 -3 -1c-26,-12 -66,-23 -96,-26l-4 -1 -2 3c-55,52 -98,127 -121,207 -11,-1 -89,-11 -101,-14 0,-81 -23,-165 -62,-230l-3 -3 -3 -1c-28,-4 -70,-4 -99,0l-4 1 -2 3c-39,65 -61,149 -63,231 -11,2 -90,12 -102,13 -22,-80 -66,-155 -120,-208l-3 -3 -5 1c-29,4 -69,15 -94,26l-4 1 0 4c-12,37 -17,77 -17,119 0,40 6,81 16,120 -11,5 -87,38 -97,41 -43,-70 -104,-132 -169,-169l-4 -1 -3 1c-27,11 -64,32 -86,49l-3 3 0 11c0,73 22,155 62,225 -8,7 -67,52 -75,59 -59,-57 -134,-101 -208,-120l-3 -1 -4 2c-22,18 -52,48 -71,70l-1 4 0 3c19,74 62,148 119,208 -6,9 -55,75 -62,83 -72,-40 -155,-63 -231,-62l-5 0 -2 4c-17,22 -38,58 -49,84l-2 4 2 4c37,66 99,127 170,170 -5,11 -34,81 -38,91 -81,-20 -168,-20 -240,1l-4 1 -1 4c-11,25 -23,65 -26,95l-1 4 2 3c54,54 129,97 208,120 -1,10 -11,88 -13,99 -83,2 -167,24 -232,62l-3 2 -1 5c-1,14 -2,31 -2,49 0,18 1,36 2,49l1 5 3 2c65,38 149,60 232,61 2,11 13,92 14,103 -80,24 -154,66 -208,121l-2 3 1 5c4,29 15,70 25,95l2 3 3 1c74,21 160,20 240,0 5,10 35,81 40,92 -71,42 -132,103 -170,169l-1 3 1 4c12,26 32,63 50,86l3 3 4 0c74,2 159,-21 231,-62 7,10 56,73 62,82 -57,58 -100,133 -120,207l-1 3 3 4c18,23 46,52 69,70l4 3 3 -1c73,-19 149,-62 208,-119 9,6 73,56 82,62 -39,72 -61,154 -61,228l0 8 2 3c23,17 59,38 86,50l4 1 4 -2c65,-36 127,-99 170,-170 10,4 79,32 89,37 -10,39 -16,79 -16,119 0,41 6,83 17,120l2 3 3 2c26,10 65,22 95,26l4 1 3 -3c54,-54 97,-129 119,-207 11,1 92,12 103,13 2,83 25,167 63,232l2 3 4 1c29,4 71,4 97,0l5 -1 2 -3c39,-65 62,-149 63,-232 11,-2 87,-12 97,-13 22,79 65,154 121,207l2 4 5 -1c29,-5 70,-15 95,-26l4 -2 0 -3c10,-37 17,-79 17,-119 -1,-41 -7,-82 -17,-121 10,-5 84,-36 94,-41 42,71 104,132 169,170l4 1 3 -1c26,-11 63,-32 86,-50l4 -2 0 -11c0,-73 -23,-155 -62,-225 9,-7 69,-54 78,-61 59,57 135,101 207,120l6 1 2 -2c22,-18 53,-48 70,-71l2 -2 -1 -4c-18,-74 -61,-149 -119,-208 7,-9 55,-73 62,-82 73,41 156,63 231,62l5 0 2 -3c18,-23 39,-60 49,-86l2 -4 -2 -3c-35,-65 -97,-126 -167,-170 3,-11 33,-81 36,-91 80,20 167,21 240,0l4 -1 1 -4c12,-26 22,-66 26,-96l0 -3 -2 -4c-53,-54 -128,-97 -207,-119 2,-11 11,-87 13,-97 84,-3 167,-25 232,-63l4 -2 1 -4c2,-14 2,-32 2,-50 0,-18 0,-35 -2,-49z"/>
   <path class="fil0" d="M766 2151l-89 77 45 -132c-8,-12 -11,-19 -20,-30l-160 109c8,10 16,20 24,31l96 -66 -45 133c8,8 16,22 27,31l147 -127c-8,-9 -18,-16 -25,-26z"/>
   <path class="fil0" d="M1830 2452l64 181c12,-4 25,-8 38,-13l-62 -180c-17,6 -24,8 -40,12z"/>
   <path class="fil0" d="M2189 2240l79 85 -133 -39c-11,8 -18,11 -28,20l115 155c10,-7 21,-17 30,-25l-70 -93 134 40c9,-8 22,-17 31,-28l-134 -142c-7,8 -15,18 -24,27z"/>
   <path class="fil0" d="M2082 2507c-4,5 -9,9 -16,12 -25,15 -58,10 -76,-12 -3,-3 -5,-6 -7,-9 -6,-10 -8,-21 -9,-31 0,-21 11,-42 32,-54 29,-16 67,-7 82,23 6,10 9,20 9,31 0,14 -5,29 -15,40zm-94 -122c-31,17 -47,48 -48,82 1,13 3,27 9,39 2,3 3,6 4,9 27,46 85,61 129,35 19,-10 32,-26 41,-44 5,-12 8,-26 8,-39 -1,-17 -4,-33 -13,-47 -26,-46 -85,-61 -130,-35z"/>
   <path class="fil0" d="M1521 2626l13 -39 13 -40 15 40 15 36 -56 3zm47 -119l-2 -5 -42 2 -2 2 -25 81 -36 106c13,0 26,0 39,1l9 -34 83 -2 13 33c12,-2 25,-3 38,-4l-41 -100 -34 -80z"/>
   <path class="fil0" d="M1785 2469c-56,12 -99,22 -154,31l5 32c21,-4 39,-6 61,-9l28 155 41 -8 -34 -154c22,-5 41,-11 62,-15l-9 -32z"/>
   <path class="fil0" d="M1342 1522c0,-78 52,-148 127,-171 1,-8 3,-49 3,-49l92 0c0,0 2,38 3,46 79,20 136,92 136,174 0,100 -81,182 -181,182 -98,0 -180,-82 -180,-182zm449 -1c0,-150 -121,-273 -272,-273 -150,0 -272,123 -272,273 0,150 122,273 272,273 150,0 272,-123 272,-273z"/>
  </g>
  <g id="_2282865640400">
   <path class="fil0" d="M4935 1292c-19,1 -54,3 -77,3 -61,0 -64,-30 -64,-118l0 -253 144 0c13,0 23,-10 23,-23l0 -81c0,-13 -10,-24 -23,-24l-144 0 0 -119c0,-7 -4,-14 -9,-18 -6,-5 -13,-6 -20,-4l-95 23c-10,2 -18,12 -18,23l0 95 -54 0c-13,0 -24,11 -24,24l0 81c0,13 11,23 24,23l54 0 0 273c0,178 44,233 186,233 29,0 74,-7 107,-13 11,-3 19,-13 19,-25l-4 -77c-1,-13 -12,-23 -25,-23zm-651 -500c-2,0 -8,0 -19,0 -1,0 -3,0 -5,0l0 0c-3,0 -7,0 -11,0 -63,0 -124,39 -163,66l0 -38c0,-13 -10,-24 -23,-24l-94 0c-13,0 -24,11 -24,24l0 572c0,13 11,23 24,23l94 0c13,0 23,-10 23,-23l0 -396c22,-17 88,-67 166,-74 1,0 1,0 1,0l0 0c48,0 76,23 77,69l0 401c0,13 10,23 23,23l95 0c13,0 23,-10 23,-23l0 -391c0,-135 -60,-202 -187,-209zm-520 -216l-99 0c0,0 -1,0 -2,0l0 0c0,0 -1,0 -1,0 -2,0 -4,1 -6,2 -1,0 -2,0 -2,1 -2,1 -4,2 -5,4 -1,0 -1,1 -2,1 -1,2 -2,4 -3,6 0,0 0,1 0,1 -1,3 -2,5 -2,8 0,0 0,0 0,0l0 793c0,13 11,23 24,23l98 0c1,0 1,0 2,0l0 0c1,0 1,0 1,0 3,-1 5,-1 7,-2 0,0 1,-1 1,-1 2,-1 4,-3 6,-4 0,-1 0,-1 1,-2 1,-1 2,-3 3,-6 1,0 1,0 1,-1 1,-2 1,-4 1,-7l0 0 0 -793c0,-13 -10,-23 -23,-23zm3200 334c67,0 130,16 181,20 6,1 13,-1 18,-5 4,-4 7,-11 8,-17l3 -78c0,-12 -8,-23 -20,-25 -46,-7 -119,-23 -190,-23 -193,0 -279,99 -279,321 0,1 0,3 0,4l0 0c0,222 86,321 279,321 71,0 144,-16 190,-23 12,-2 20,-13 20,-25l-3 -78c-1,-6 -4,-13 -8,-17 -5,-4 -12,-6 -18,-5 -51,4 -114,20 -181,20 -86,0 -125,-38 -133,-141 0,-2 -1,-4 -1,-6 0,-4 0,-8 0,-12 0,-4 -1,-9 -1,-13 0,-3 0,-6 0,-10 0,-5 0,-10 0,-15 0,-142 35,-193 135,-193zm653 382c-19,1 -54,3 -77,3 -61,0 -64,-30 -64,-118l0 -253 143 0c13,0 24,-10 24,-23l0 -81c0,-13 -11,-24 -24,-24l-143 0 0 -119c0,-7 -4,-14 -10,-18 -5,-5 -13,-6 -20,-4l-94 23c-10,2 -18,12 -18,23l0 95 -54 0c-13,0 -24,11 -24,24l0 81c0,13 11,23 24,23l54 0 0 273c0,178 44,233 186,233 28,0 74,-7 107,-13 11,-3 19,-13 19,-25l-4 -77c-1,-13 -12,-23 -25,-23zm-1178 -10c-1,1 -89,25 -155,25 -55,0 -63,-51 -63,-80 0,-49 27,-75 82,-80l136 -7 0 142zm-69 -500c-71,0 -185,16 -231,23 -12,2 -20,13 -20,25l3 78c1,6 3,13 8,17 5,4 12,6 18,5 51,-4 147,-12 215,-12 48,0 76,27 76,74l0 37 -153 13c-147,11 -207,65 -207,188 0,126 65,198 179,198 95,0 202,-42 202,-43 23,18 46,33 94,39 7,1 14,-1 19,-5 5,-4 8,-11 8,-18l0 -410c0,-143 -67,-209 -211,-209zm-1178 288c1,-4 1,-9 1,-13l0 -6c7,-77 29,-120 75,-137 18,-5 38,-10 59,-10 92,0 94,50 94,80 0,48 -26,74 -82,79l-147 7zm372 -90c0,-126 -59,-198 -237,-198 -8,0 -16,0 -23,0 -177,8 -256,108 -256,321 0,1 0,3 0,4l0 0c0,73 6,135 23,183 27,94 108,138 201,138 10,0 20,0 31,0 8,-1 16,-1 24,-2l0 0c65,-5 141,-16 176,-21 12,-2 21,-13 20,-25l-3 -78c0,-6 -3,-13 -8,-17 -5,-4 -11,-6 -18,-5 -44,4 -121,10 -184,12 -61,0 -94,-25 -109,-85l-5 -26 160 -13c148,-11 208,-65 208,-188zm431 -188c-62,3 -124,39 -162,66l0 -38c0,-13 -11,-24 -24,-24l-94 0c-13,0 -24,11 -24,24l0 572c0,13 11,23 24,23l94 0c13,0 24,-10 24,-23l0 -396c21,-17 87,-67 166,-74 12,-1 21,-11 21,-23l0 -84c0,-6 -3,-13 -7,-17 -5,-4 -12,-7 -18,-6z"/>
   <path class="fil1" d="M3983 2393c22,0 46,-4 71,-11 26,-7 47,-16 64,-25l5 111c-9,4 -21,7 -33,11 -13,4 -26,7 -39,9 -14,3 -28,5 -41,7 -14,1 -27,2 -39,2 -48,0 -93,-7 -133,-21 -41,-14 -76,-34 -105,-61 -29,-27 -52,-60 -68,-99 -17,-40 -25,-85 -25,-137 0,-52 8,-98 24,-139 15,-41 37,-75 66,-104 28,-28 63,-50 104,-65 41,-15 87,-23 137,-23 13,0 27,1 41,3 15,1 29,4 42,7 14,3 26,7 38,11 11,5 21,10 28,15l-9 106c-19,-14 -40,-24 -64,-31 -23,-7 -47,-10 -71,-10 -31,0 -59,5 -84,16 -25,11 -46,26 -64,45 -17,19 -30,41 -40,68 -9,26 -14,54 -14,85 0,33 5,63 14,91 10,27 23,52 41,72 18,21 40,37 65,49 26,12 56,18 89,18zm340 90l-119 0 0 -671 119 0 0 671zm535 -461l0 281c0,30 1,60 2,90 2,30 3,60 5,90l-112 0 -4 -70c-16,24 -36,43 -63,57 -26,14 -54,21 -83,21 -34,0 -62,-5 -83,-16 -21,-11 -37,-25 -49,-44 -12,-20 -20,-42 -24,-67 -4,-26 -7,-53 -7,-82l0 -260 120 0 0 222c0,15 0,32 1,49 1,17 4,33 9,47 6,15 14,27 25,37 11,9 27,14 48,14 20,0 37,-5 49,-15 13,-10 23,-22 30,-38 7,-15 12,-31 14,-50 2,-18 3,-34 3,-50l0 -216 119 0zm239 461l-111 0 0 -671 119 0 0 205c0,15 -1,29 -1,43 -1,14 -2,28 -4,43 30,-60 80,-90 150,-90 33,0 61,6 85,19 23,13 42,30 57,52 15,21 26,46 33,74 7,27 11,56 11,85 0,30 -4,60 -10,90 -7,30 -17,56 -32,80 -14,23 -34,42 -58,56 -25,15 -55,22 -91,22 -32,0 -60,-6 -85,-19 -25,-12 -45,-33 -60,-61l-3 72zm114 -86c18,0 33,-5 46,-14 13,-9 24,-21 32,-35 8,-15 14,-30 17,-47 4,-17 5,-33 5,-47 0,-16 -1,-32 -4,-49 -4,-17 -9,-32 -17,-46 -8,-13 -18,-24 -30,-33 -13,-9 -29,-13 -48,-13 -19,0 -35,4 -49,13 -14,9 -25,20 -33,34 -8,14 -15,29 -18,47 -4,17 -6,33 -6,49 0,17 2,34 6,50 3,17 9,32 18,46 8,13 18,24 32,32 13,9 29,13 49,13zm720 86l-127 0 0 -621 204 0c28,0 55,2 82,6 27,4 50,12 71,24 21,12 38,29 51,50 13,22 20,49 20,84 0,40 -12,73 -34,99 -23,25 -53,41 -92,47 11,5 21,10 29,17 8,6 14,13 20,21 5,8 10,17 14,27 4,9 9,19 13,29l91 217 -141 0 -68 -176c-7,-19 -14,-34 -22,-44 -7,-11 -16,-19 -26,-24 -10,-6 -22,-10 -35,-11 -14,-2 -30,-3 -50,-3l0 258zm-1 -354l55 0c15,0 29,-1 42,-4 14,-3 26,-8 36,-14 10,-7 19,-16 25,-27 7,-11 10,-24 10,-40 0,-16 -3,-30 -8,-41 -5,-10 -12,-19 -22,-25 -9,-6 -20,-11 -32,-14 -12,-3 -26,-4 -40,-4l-66 0 0 169zm830 -107l0 281c0,30 1,60 2,90 2,30 3,60 5,90l-112 0 -4 -70c-16,24 -37,43 -63,57 -26,14 -54,21 -83,21 -34,0 -62,-5 -83,-16 -21,-11 -37,-25 -49,-44 -12,-20 -20,-42 -24,-67 -5,-26 -7,-53 -7,-82l0 -260 120 0 0 222c0,15 0,32 1,49 1,17 4,33 9,47 5,15 14,27 25,37 11,9 27,14 48,14 20,0 36,-5 49,-15 13,-10 23,-22 30,-38 7,-15 11,-31 14,-50 2,-18 3,-34 3,-50l0 -216 119 0zm242 470c-22,0 -45,-2 -67,-6 -23,-4 -45,-9 -68,-14l6 -101c19,9 38,17 57,23 19,6 40,9 60,9 8,0 17,-1 26,-3 10,-1 19,-4 28,-8 8,-4 15,-9 20,-16 6,-7 9,-15 9,-25 0,-12 -6,-22 -16,-29 -10,-8 -23,-14 -38,-20 -15,-6 -32,-12 -50,-19 -18,-7 -35,-15 -50,-26 -15,-10 -28,-23 -38,-40 -11,-16 -16,-37 -16,-62 0,-26 6,-48 18,-66 12,-18 28,-33 47,-44 19,-12 40,-20 63,-25 23,-5 45,-7 67,-7 19,0 39,2 58,5 19,4 38,8 56,13l-8 89c-16,-5 -33,-10 -49,-13 -16,-3 -32,-5 -49,-5 -8,0 -17,1 -26,2 -9,1 -18,3 -27,6 -9,4 -16,9 -22,15 -6,6 -9,14 -9,24 0,12 6,21 16,28 10,6 23,13 39,18 16,6 32,12 50,18 18,6 35,14 50,24 16,11 29,24 39,41 11,17 16,39 16,66 0,27 -6,49 -17,68 -12,18 -26,34 -44,46 -18,12 -39,20 -62,26 -23,5 -46,8 -69,8zm514 -86c27,0 52,-5 75,-13 23,-9 46,-20 69,-33l2 104c-25,11 -50,19 -77,24 -27,5 -54,7 -81,7 -77,0 -136,-21 -179,-63 -42,-43 -63,-102 -63,-178 0,-35 5,-68 15,-97 10,-30 25,-56 44,-78 19,-21 42,-38 70,-50 28,-13 60,-19 96,-19 36,0 67,7 93,20 26,12 47,30 64,51 17,22 29,47 37,77 8,29 12,60 12,93 0,7 0,14 -1,20 0,6 -1,13 -2,20l-311 0c3,38 18,66 43,86 26,19 57,29 94,29zm63 -198c-1,-14 -3,-28 -6,-42 -4,-14 -10,-26 -17,-37 -8,-11 -18,-19 -30,-26 -12,-6 -26,-9 -43,-9 -17,0 -32,3 -44,9 -13,6 -23,14 -32,25 -9,11 -16,23 -21,37 -4,14 -8,28 -9,43l202 0z"/>
  </g>
 </g>
</svg>
