<?xml version="1.0" encoding="UTF-8"?>
<!DOCTYPE svg PUBLIC "-//W3C//DTD SVG 1.1//EN" "http://www.w3.org/Graphics/SVG/1.1/DTD/svg11.dtd">
<!-- Creator: CorelDRAW X7 -->
<svg xmlns="http://www.w3.org/2000/svg" xml:space="preserve" width="8.8113mm" height="8.4667mm" version="1.1" style="shape-rendering:geometricPrecision; text-rendering:geometricPrecision; image-rendering:optimizeQuality; fill-rule:evenodd; clip-rule:evenodd"
viewBox="0 0 14 14"
 xmlns:xlink="http://www.w3.org/1999/xlink">
 <defs>
  <style type="text/css">
   <![CDATA[
    .fil0 {fill:#9C9C9C;fill-rule:nonzero}
   ]]>
  </style>
 </defs>
 <g id="Layer_x0020_1">
  <metadata id="CorelCorpID_0Corel-Layer"/>
  <g id="_2283014416592">
   <path class="fil0" d="M3 3l9 0c0,0 0,0 0,1 0,0 0,0 0,0l0 6c0,0 0,0 0,0 0,0 0,0 0,0l-9 0c0,0 -1,0 -1,0 0,0 0,0 0,0l0 -6c0,0 0,0 0,0l0 0c0,-1 1,-1 1,-1zm8 7l-2 -3 -2 2 -1 -2 -3 3 8 0zm-2 -3l3 2 0 -5 -3 3zm-6 2l2 -2 -2 -3 0 5zm0 -5l4 4 4 -4 -8 0z"/>
   <path class="fil0" d="M2 0l10 0c1,0 1,0 2,1l0 0c0,0 0,1 0,1l0 10c0,0 0,1 0,1l0 0c-1,0 -1,1 -2,1l-10 0c0,0 -1,-1 -1,-1l0 0c-1,0 -1,-1 -1,-1l0 -10c0,0 0,-1 1,-1l0 0c0,-1 1,-1 1,-1zm10 1l-10 0c0,0 0,0 -1,0 0,1 0,1 0,1l0 10c0,0 0,0 0,0l0 0c1,1 1,1 1,1l10 0c0,0 1,0 1,-1 0,0 0,0 0,0l0 -10c0,0 0,0 0,-1l0 0c0,0 -1,0 -1,0z"/>
  </g>
 </g>
</svg>
