<?xml version="1.0" encoding="UTF-8"?>
<!DOCTYPE svg PUBLIC "-//W3C//DTD SVG 1.1//EN" "http://www.w3.org/Graphics/SVG/1.1/DTD/svg11.dtd">
<!-- Creator: CorelDRAW X7 -->
<svg xmlns="http://www.w3.org/2000/svg" xml:space="preserve" width="8.8113mm" height="8.4667mm" version="1.1" style="shape-rendering:geometricPrecision; text-rendering:geometricPrecision; image-rendering:optimizeQuality; fill-rule:evenodd; clip-rule:evenodd"
viewBox="0 0 17 17"
 xmlns:xlink="http://www.w3.org/1999/xlink">
 <defs>
  <style type="text/css">
   <![CDATA[
    .fil0 {fill:#9C9C9C;fill-rule:nonzero}
   ]]>
  </style>
 </defs>
 <g id="Layer_x0020_1">
  <metadata id="CorelCorpID_0Corel-Layer"/>
  <g id="_2283018637088">
   <path class="fil0" d="M3 0l12 0c0,0 1,0 2,1l0 0c0,0 0,1 0,2l0 11c0,1 0,1 0,2l0 0c-1,0 -2,1 -2,1l-12 0c-1,0 -2,-1 -2,-1l0 0c-1,-1 -1,-1 -1,-2l0 -11c0,-1 0,-2 1,-2l0 0c0,-1 1,-1 2,-1zm12 1l-12 0c-1,0 -1,0 -1,1 -1,0 -1,0 -1,1l0 11c0,0 0,1 1,1l0 0c0,0 0,0 1,0l12 0c0,0 0,0 1,0 0,0 0,-1 0,-1l0 -11c0,-1 0,-1 0,-1l0 0c-1,-1 -1,-1 -1,-1z"/>
   <path class="fil0" d="M3 11c0,1 1,2 1,2 1,0 8,0 10,0 1,-1 1,-2 1,-2 0,-1 0,-4 0,-6l0 0c-1,-1 -1,-1 -1,-1 -2,0 -9,0 -10,0 -1,0 -1,1 -1,1 -1,2 -1,4 0,6zm4 -1l0 -4 4 2 -4 2z"/>
  </g>
 </g>
</svg>
